<?xml version="1.0" standalone="no"?>
<!DOCTYPE svg PUBLIC "-//W3C//DTD SVG 20010904//EN"
 "http://www.w3.org/TR/2001/REC-SVG-20010904/DTD/svg10.dtd">
<svg version="1.0" xmlns="http://www.w3.org/2000/svg"
 width="620.000000pt" height="413.000000pt" viewBox="0 0 620.000000 413.000000"
 preserveAspectRatio="xMidYMid meet">

<g transform="translate(0.000000,413.000000) scale(0.100000,-0.100000)"
fill="#000000" stroke="none">
<path d="M2640 3836 c-13 -25 -40 -36 -40 -16 0 14 -32 12 -51 -3 -21 -16 -32
-47 -16 -47 8 0 8 -3 -2 -9 -8 -5 -11 -16 -6 -30 5 -17 2 -21 -14 -21 -11 0
-23 5 -26 10 -10 17 -25 11 -18 -7 6 -17 5 -17 -14 0 -32 28 -60 21 -54 -15 2
-13 -17 -9 -22 5 -3 9 -8 9 -21 -2 -11 -9 -13 -18 -7 -24 11 -11 4 -37 -11
-37 -5 0 -6 5 -3 10 3 6 2 10 -3 10 -15 0 -23 -30 -9 -30 19 -1 -25 -30 -45
-30 -21 0 -24 -18 -5 -26 16 -6 18 -34 3 -35 -32 -2 -49 -10 -67 -30 -23 -27
-24 -33 -3 -54 15 -15 15 -17 -1 -29 -12 -8 -16 -21 -12 -35 3 -11 1 -21 -5
-21 -6 0 -8 -6 -5 -14 3 -8 -3 -23 -14 -34 -23 -25 -25 -42 -4 -42 20 0 19
-26 0 -34 -18 -6 -203 -1 -450 14 -88 5 -236 10 -330 10 -93 0 -185 0 -204 0
-88 1 -107 -15 -121 -104 -4 -28 -15 -91 -24 -141 -8 -49 -16 -119 -18 -155
l-3 -65 55 2 c182 7 401 23 435 32 22 6 102 20 179 31 76 11 141 22 145 24 20
13 297 49 356 47 46 -2 46 -2 48 -30 1 -18 6 -21 25 -16 27 7 52 -13 52 -42 0
-5 4 -3 8 3 4 6 24 14 44 17 35 5 39 4 54 -29 11 -23 14 -45 10 -69 -6 -28 -4
-35 9 -35 13 0 20 18 16 43 -2 12 20 49 26 44 2 -3 13 3 24 14 16 16 27 18 57
13 48 -9 94 -32 87 -44 -4 -6 1 -10 9 -10 34 0 13 -17 -31 -27 l-48 -9 30 -14
30 -14 -40 -4 c-45 -4 -57 -16 -49 -49 5 -17 -2 -30 -30 -55 -29 -26 -36 -39
-36 -69 0 -69 -5 -72 -67 -39 -40 21 -70 30 -104 30 -50 0 -66 14 -42 38 30
30 -11 89 -68 98 -61 10 -64 64 -5 90 19 8 24 13 13 14 -24 0 -67 -44 -67 -68
0 -15 -13 -23 -58 -36 -36 -10 -68 -27 -84 -43 -40 -44 -80 -110 -87 -145 -5
-25 -12 -34 -31 -36 -55 -6 -69 -13 -89 -48 -12 -19 -21 -36 -21 -38 0 -1 14
-1 30 2 37 5 42 -21 8 -39 l-22 -12 22 -8 c15 -6 22 -17 23 -36 2 -24 2 -25 6
-5 2 12 10 22 17 22 8 0 28 3 45 6 31 7 31 6 21 -22 -14 -35 -49 -74 -67 -74
-16 0 -27 -42 -20 -79 7 -34 -7 -50 -56 -61 -32 -8 -32 -8 -4 -9 28 -1 28 -2
23 -47 -3 -25 -7 -49 -10 -51 -3 -3 4 -19 15 -34 11 -16 17 -34 13 -40 -4 -8
-3 -9 4 -5 6 4 14 23 18 42 4 23 9 31 14 23 5 -7 3 -23 -3 -36 -8 -19 -7 -27
5 -39 13 -13 13 -25 2 -96 -15 -93 -42 -175 -61 -182 -18 -7 -17 42 2 119 20
84 19 100 -14 145 -34 47 -44 43 -28 -13 16 -55 11 -87 -14 -87 -11 0 -22 7
-26 16 -3 8 -12 13 -20 9 -11 -4 -14 0 -10 14 3 14 0 17 -15 13 -10 -2 -18 -1
-16 4 2 5 -1 10 -7 12 -15 5 -23 -34 -24 -118 -1 -85 -33 -166 -64 -164 -23 2
-22 -4 17 -85 l34 -70 16 44 c27 70 43 75 36 10 -3 -30 -2 -55 2 -55 4 0 8 8
8 18 0 40 76 162 101 162 12 0 1 -64 -11 -68 -7 -3 -6 -8 4 -16 11 -8 12 -17
5 -36 l-10 -24 -12 23 c-16 31 -29 30 -47 -2 -12 -22 -12 -33 -2 -74 16 -58
17 -59 38 -42 14 11 18 11 29 -4 12 -16 13 -16 17 1 3 11 2 26 -3 34 -5 10 -3
15 6 15 11 0 14 -15 14 -62 -1 -58 -3 -62 -29 -72 -23 -8 -31 -7 -44 5 -10 11
-16 12 -16 4 0 -7 -7 -12 -16 -12 -9 0 -18 -9 -21 -20 -8 -31 -21 -24 -42 22
-18 39 -19 40 -24 18 -4 -24 -4 -24 -6 3 0 16 -6 27 -13 25 -7 -1 -35 8 -62
20 -54 25 -77 27 -93 11 -19 -19 -3 -39 31 -39 17 0 45 -9 61 -20 17 -12 45
-28 63 -37 18 -9 45 -32 60 -52 15 -19 37 -45 49 -56 l22 -20 -68 -200 c-37
-110 -80 -229 -95 -265 -15 -36 -30 -76 -33 -89 -3 -13 -14 -26 -24 -28 -22
-6 -24 -14 -7 -31 6 -6 9 -15 5 -19 -4 -3 -21 7 -38 23 -26 25 -30 34 -25 65
5 33 4 36 -32 49 -20 7 -48 21 -62 32 -14 10 -49 37 -78 59 -28 22 -52 36 -52
32 0 -4 -6 1 -13 12 -13 17 -14 17 -20 -4 -3 -11 -1 -24 4 -27 5 -3 5 -13 -1
-24 -7 -13 -7 -21 0 -25 15 -9 12 -51 -5 -65 -18 -15 -20 -51 -3 -68 7 -7 11
-39 10 -82 -1 -49 3 -74 14 -84 18 -18 19 -69 2 -64 -19 6 -39 75 -44 143 -7
131 -17 205 -25 205 -5 0 -25 -25 -44 -55 -20 -30 -40 -55 -46 -55 -5 0 -17
-16 -25 -36 -11 -27 -13 -43 -5 -67 6 -18 11 -61 12 -96 2 -61 5 -67 38 -98
55 -51 133 -86 172 -78 l33 7 -35 -43 c-18 -24 -39 -48 -45 -54 -6 -5 -18 -22
-27 -37 l-17 -28 1401 0 1401 0 -7 85 c-4 49 -14 99 -25 120 -10 20 -16 44
-13 52 5 13 8 11 17 -8 10 -23 10 -23 14 11 4 40 34 86 50 76 14 -8 32 -71 32
-109 l0 -29 33 22 c17 12 49 29 70 37 20 9 37 20 37 25 0 4 6 8 14 8 7 0 19 7
26 15 7 8 27 17 45 21 76 14 137 81 173 189 l20 59 54 -3 c72 -3 170 -19 221
-35 23 -8 77 -17 121 -20 50 -4 90 -13 110 -25 18 -11 61 -21 101 -25 141 -13
155 -15 173 -24 9 -6 37 -13 62 -17 25 -4 49 -10 54 -13 5 -3 21 -7 35 -8 59
-6 219 -32 256 -42 22 -5 62 -13 89 -17 l48 -7 -22 -20 c-12 -11 -19 -23 -15
-26 3 -3 11 0 17 6 15 15 78 16 78 2 0 -14 30 -12 35 2 7 17 93 16 124 -1 13
-7 36 -10 52 -7 16 3 29 2 29 -3 0 -9 51 -22 80 -21 8 1 27 1 43 1 l27 0 0
714 c0 393 -2 715 -5 715 -3 0 -21 -6 -40 -14 -19 -8 -69 -20 -112 -27 -43 -7
-83 -18 -89 -25 -8 -10 -100 -13 -415 -12 -222 0 -412 5 -421 10 -10 5 -18 20
-18 35 0 15 -5 67 -12 117 -10 79 -13 86 -18 54 -6 -35 0 -102 15 -174 10 -45
-7 -48 -193 -35 -301 20 -362 21 -362 7 0 -10 24 -15 83 -20 45 -4 204 -18
352 -32 437 -40 481 -44 675 -54 193 -11 433 -49 458 -74 11 -11 8 -17 -18
-36 -17 -12 -35 -33 -40 -46 -5 -13 -20 -26 -34 -30 -17 -4 -24 -13 -25 -32
-2 -72 1 -117 10 -133 5 -10 9 -29 9 -42 0 -14 7 -27 15 -31 8 -3 12 -12 9
-21 -4 -10 0 -15 15 -15 14 0 21 -6 21 -20 0 -12 -7 -20 -16 -20 -8 0 -22 -7
-30 -15 -9 -8 -27 -16 -42 -17 -15 0 -40 -2 -57 -4 -76 -7 -361 -4 -465 5
-146 13 -382 25 -484 26 -55 0 -81 -4 -83 -12 -3 -8 4 -13 16 -13 17 0 21 -6
21 -30 0 -38 -33 -48 -101 -31 -27 7 -66 12 -86 10 -92 -5 -139 1 -161 21 -12
12 -22 16 -22 10 0 -6 -4 -9 -10 -5 -5 3 -7 12 -3 20 3 11 1 13 -10 10 -11 -5
-13 0 -9 22 6 36 6 35 -62 -77 -32 -52 -60 -109 -63 -127 -4 -20 -10 -30 -18
-26 -18 6 -36 -30 -39 -82 -3 -34 -15 -59 -52 -111 -27 -38 -52 -73 -56 -78
-13 -19 -20 2 -8 24 8 14 8 20 1 16 -7 -4 -10 6 -9 29 1 19 -2 38 -5 42 -4 3
-7 -7 -7 -23 0 -36 1 -35 -117 -173 l-22 -26 -1 23 c0 13 -5 32 -11 43 -13 25
-96 79 -121 79 -10 0 -18 5 -18 10 0 6 -17 11 -37 11 l-38 2 39 6 39 6 -29 14
c-16 7 -36 17 -44 21 -10 5 -21 0 -32 -13 -24 -27 -23 -19 8 57 21 53 32 67
62 82 62 29 102 34 135 18 41 -22 117 -44 117 -34 0 25 -152 84 -190 74 -43
-12 -50 -13 -44 -3 3 5 13 9 22 9 9 0 24 5 32 11 11 8 8 9 -15 5 l-30 -6 32
17 c28 14 38 15 72 3 25 -8 41 -20 45 -33 3 -12 8 -18 12 -15 3 4 1 22 -6 42
-10 32 -16 36 -68 46 -84 16 -90 19 -72 30 8 6 26 10 40 10 18 0 21 -3 11 -9
-10 -6 3 -12 40 -18 30 -5 56 -5 57 -1 2 4 26 8 52 8 27 0 51 4 54 9 8 13 -66
24 -116 17 -24 -3 -35 -3 -25 0 27 8 20 25 -7 18 -32 -8 -66 4 -66 22 0 22
-25 27 -65 14 -31 -10 -40 -9 -63 6 -15 10 -30 17 -34 16 -5 -1 -8 3 -8 9 0 6
-5 7 -12 2 -19 -11 -39 -13 -32 -2 3 5 10 7 15 4 5 -4 12 1 15 10 4 8 13 14
21 13 8 -2 22 8 30 22 l15 25 -18 -22 c-12 -14 -24 -19 -31 -15 -9 6 8 31 53
82 37 41 90 107 119 145 59 79 102 122 112 112 4 -4 10 -31 13 -60 6 -41 4
-55 -9 -66 -10 -8 -7 -8 9 2 14 8 24 22 22 31 -3 19 45 33 61 17 13 -13 63
-15 71 -3 2 4 2 13 -2 19 -12 18 -112 64 -124 57 -6 -4 -8 -3 -4 4 6 10 23 11
138 13 41 1 39 5 -21 47 -18 14 -41 22 -52 19 -10 -3 -22 -1 -25 4 -6 11 44
32 57 23 5 -3 9 0 9 5 0 19 81 13 96 -7 10 -13 15 -14 24 -5 16 15 7 27 -33
47 -26 12 -42 13 -67 6 -44 -13 -50 -6 -8 10 18 7 27 14 21 17 -7 2 -13 8 -13
13 0 14 24 18 50 8 14 -6 38 -12 53 -13 36 -4 112 -67 159 -134 41 -58 56 -56
29 4 -25 56 -88 117 -165 160 l-66 36 17 25 c22 34 3 56 -26 30 -19 -17 -26
-17 -87 -5 -66 13 -68 13 -115 -14 -66 -37 -77 -35 -77 11 -1 20 -4 56 -7 80
-5 30 -2 52 9 76 17 37 100 116 121 116 7 0 18 7 25 15 22 26 -50 -4 -99 -41
-42 -32 -61 -41 -61 -29 0 15 90 126 142 175 57 55 68 73 48 85 -11 7 -70 -25
-70 -37 0 -4 -4 -8 -10 -8 -18 0 -11 14 55 102 53 72 72 89 103 98 52 14 68
25 47 34 -9 3 -44 -4 -78 -15 -34 -12 -66 -22 -72 -23 -5 -1 -16 -5 -24 -10
-8 -5 -16 -3 -22 5 -6 10 -9 8 -9 -8 0 -13 -4 -23 -10 -23 -5 0 -10 10 -10 23
0 16 -3 18 -9 9 -4 -8 -11 -13 -15 -13 -3 1 -21 -6 -39 -15 l-32 -17 38 42
c20 22 37 49 37 59 0 9 7 26 15 36 22 29 19 32 -37 31 l-51 0 -14 60 c-14 61
-49 125 -69 125 -14 0 -26 -28 -18 -41 3 -5 2 -14 -2 -21 -4 -7 -9 -21 -10
-32 -5 -40 -30 -121 -47 -153 -22 -40 -41 -43 -33 -5 13 65 18 182 8 182 -5 0
-13 -7 -16 -16 -5 -13 -8 -13 -19 -2 -7 7 -16 22 -21 33 -4 11 -4 17 -1 13 3
-3 33 21 66 53 33 33 66 59 74 59 7 0 18 7 25 15 23 28 -11 58 -99 89 -45 16
-89 26 -100 23 -10 -2 -26 0 -35 5 -11 6 -16 5 -16 -4 0 -18 -36 -20 -50 -3
-16 19 -4 53 22 61 16 5 17 8 7 14 -11 7 -10 13 5 29 10 11 19 32 19 45 0 14
2 24 6 23 3 -1 6 0 7 3 3 17 26 50 33 46 4 -3 3 12 -2 34 -6 22 -8 43 -3 47 9
9 47 -38 40 -49 -3 -4 0 -8 6 -8 7 0 23 -9 37 -20 14 -11 34 -20 43 -20 10 0
23 -6 29 -14 7 -8 24 -17 39 -21 15 -4 41 -17 57 -29 17 -12 38 -25 48 -29 23
-8 22 -29 -5 -80 -12 -23 -25 -58 -29 -77 -4 -19 -13 -49 -20 -67 -16 -39 -5
-55 17 -25 8 12 19 20 24 17 10 -6 50 42 50 61 0 7 6 11 13 9 18 -7 29 4 59
60 76 140 82 158 86 239 13 251 -107 397 -338 413 -79 6 -174 -22 -232 -69
-29 -23 -46 -29 -66 -25 -41 8 -85 27 -79 33 3 3 14 1 25 -5 16 -8 21 -7 26 5
9 22 8 24 -9 24 -8 0 -15 6 -15 13 0 22 -34 47 -63 47 -15 0 -27 5 -27 11 0 7
-10 9 -25 7 -17 -4 -25 -1 -25 8 0 12 -26 19 -52 15 -16 -2 -7 20 10 26 29 11
46 53 21 53 -6 0 -25 11 -44 25 -18 14 -41 28 -51 30 -11 2 -29 7 -41 11 -15
4 -23 2 -23 -5 0 -9 -5 -9 -20 -1 -14 8 -29 7 -57 -5 l-36 -15 19 22 c16 19
16 20 1 9 -9 -8 -20 -11 -24 -7 -3 3 -17 -1 -31 -10 -26 -17 -52 -13 -52 10 0
16 -37 29 -46 15 -3 -5 -12 -9 -20 -9 -8 0 -12 5 -9 10 4 6 -1 22 -9 35 -9 14
-13 25 -9 25 5 0 0 5 -9 11 -10 5 -15 16 -12 24 4 8 1 15 -6 15 -6 0 -9 -4 -6
-9 3 -5 -12 -13 -34 -19 -33 -8 -42 -7 -49 6 -5 9 -15 13 -25 9 -13 -5 -15 -2
-10 18 4 16 2 25 -6 25 -6 0 -8 -4 -5 -10 3 -5 1 -10 -4 -10 -6 0 -11 4 -11 9
0 6 -8 10 -17 10 -10 -1 -27 2 -38 6 -16 5 -24 0 -35 -19z m44 8 c9 -3 16 -11
16 -16 0 -6 -7 -7 -16 -4 -9 4 -23 1 -32 -6 -13 -11 -14 -10 -3 10 13 24 13
24 35 16z m-26 -82 c-10 -2 -18 -10 -18 -17 0 -8 -4 -16 -10 -20 -5 -3 -5 6 1
24 8 22 15 28 27 23 16 -6 16 -7 0 -10z m909 -963 c8 -8 17 -8 33 1 15 8 25 9
33 1 5 -5 23 -7 40 -4 26 5 29 4 23 -15 -5 -14 1 -35 16 -61 23 -40 23 -40 3
-55 -11 -9 -30 -16 -42 -16 -16 0 -25 -8 -29 -25 -5 -21 -10 -24 -33 -19 -14
4 -32 13 -38 22 -11 14 -13 12 -13 -12 0 -25 -3 -27 -26 -22 -20 5 -27 3 -31
-14 -4 -16 -10 -18 -31 -13 l-26 6 17 -26 c21 -32 21 -37 3 -37 -9 0 -15 -14
-18 -40 -2 -22 -1 -40 3 -40 9 0 21 -32 14 -38 -11 -11 -102 41 -117 66 -17
28 -34 111 -41 195 -5 56 17 87 57 80 13 -3 36 3 50 12 26 17 27 17 40 -1 11
-15 11 -20 0 -32 -19 -19 -18 -22 11 -22 20 0 26 7 36 43 10 39 34 77 49 77 3
0 11 -5 17 -11z m-353 -71 c52 -6 53 -22 13 -189 -21 -85 -37 -159 -37 -165 0
-6 -18 -14 -40 -18 -22 -3 -40 -10 -40 -14 0 -13 69 -54 79 -48 14 9 61 -23
61 -40 0 -8 10 -19 23 -24 12 -5 32 -17 45 -26 19 -14 22 -15 16 -1 -3 8 -19
21 -35 27 -37 16 -40 50 -5 50 14 0 32 -7 41 -16 12 -13 32 -16 78 -15 59 2
60 1 43 -17 -9 -11 -30 -22 -46 -26 -28 -5 -29 -7 -18 -31 6 -14 14 -24 17
-23 107 56 175 87 182 82 31 -19 -24 -68 -88 -78 -23 -4 -49 -13 -59 -20 -16
-12 -13 -17 26 -57 41 -43 90 -129 125 -221 27 -73 38 -63 48 42 4 49 42 140
57 140 14 0 13 -13 -6 -71 -20 -60 -12 -74 15 -28 67 115 243 325 262 313 4
-2 -18 -31 -49 -65 -54 -57 -142 -176 -142 -190 0 -4 -18 -36 -40 -70 -22 -35
-56 -90 -76 -123 -36 -57 -37 -59 -25 -110 10 -44 9 -203 -1 -211 -2 -1 -68
-28 -148 -59 -80 -31 -162 -68 -183 -82 -47 -31 -70 -77 -54 -111 8 -17 7 -27
-2 -36 -17 -17 -44 2 -56 41 -9 26 -12 28 -21 15 -9 -14 -15 -14 -65 5 -41 15
-84 21 -162 23 -59 1 -110 5 -115 8 -5 3 -11 29 -14 58 l-5 51 26 -9 c20 -8
28 -7 38 7 13 18 16 17 71 -34 23 -21 24 -8 4 45 -31 81 -85 144 -155 180 -34
18 -57 33 -50 33 7 0 10 9 8 21 -6 30 -15 37 -15 11 0 -12 -3 -22 -7 -22 -12
0 -9 80 2 81 6 1 16 1 22 0 8 -1 10 5 7 14 -3 8 -11 12 -17 8 -7 -4 -8 2 -3
18 3 13 9 45 13 72 5 44 4 47 -17 47 -18 0 -21 -4 -17 -21 3 -12 3 -18 0 -15
-9 9 -43 -25 -43 -42 0 -9 -3 -12 -7 -9 -3 4 -12 2 -19 -4 -11 -9 -16 -6 -22
11 -8 21 -9 21 -25 5 -18 -17 -24 -40 -8 -30 5 3 12 1 15 -4 6 -10 -21 -24
-33 -17 -4 3 -16 -11 -26 -30 -11 -21 -24 -33 -32 -30 -7 3 -13 1 -13 -5 0 -6
-7 -6 -19 1 -11 5 -36 10 -55 10 -37 0 -46 18 -16 32 8 4 -16 7 -54 7 -68 1
-68 1 -62 26 5 18 2 25 -8 25 -9 0 -13 6 -10 14 5 14 39 11 61 -6 18 -14 27
11 13 37 -10 18 -9 28 2 51 14 29 14 29 -37 55 l-50 25 -9 65 c-4 35 -10 65
-11 67 -5 6 -45 -18 -43 -26 1 -4 -4 -20 -11 -37 -7 -16 -13 -43 -13 -58 -1
-18 -10 -34 -25 -44 -13 -9 -22 -22 -19 -29 3 -8 -1 -14 -9 -14 -26 0 -17 -17
31 -59 41 -36 57 -43 92 -41 4 1 10 -14 14 -32 9 -44 -13 -71 -48 -58 -13 5
-24 6 -24 1 0 -4 -11 -19 -24 -33 -17 -20 -30 -25 -50 -21 -27 6 -51 44 -86
141 -8 20 -19 32 -31 32 -11 0 -26 15 -38 38 -18 35 -18 39 -3 39 9 0 25 -10
35 -21 l19 -21 -5 22 c-3 13 1 71 9 130 10 78 11 110 3 119 -16 20 -3 44 23
44 13 0 30 10 38 23 14 22 15 21 20 -18 5 -40 5 -40 50 -42 43 -3 46 -1 58 30
l12 32 22 -35 c12 -19 23 -36 24 -38 1 -2 20 -6 41 -8 33 -4 43 0 70 26 37 36
87 54 114 40 27 -15 49 -12 49 7 0 14 4 12 23 -7 20 -23 22 -34 22 -147 -1
-68 3 -123 7 -123 4 0 8 6 8 13 0 9 2 9 9 -1 6 -10 10 -8 15 10 7 22 7 22 16
3 9 -21 14 -8 11 28 -1 9 4 17 11 17 8 0 22 14 31 30 10 16 24 30 31 30 22 0
118 80 163 134 55 68 93 135 93 166 0 14 18 47 40 75 33 42 37 52 26 64 -15
14 -13 18 40 77 11 13 29 53 39 90 10 36 24 68 32 71 8 3 11 13 8 27 -4 12 -3
16 2 9 4 -6 21 -13 37 -15z m-124 -15 c0 -9 -53 -22 -63 -16 -7 4 -3 9 9 14
18 7 54 8 54 2z m-447 -38 c9 -23 -11 -28 -23 -5 -8 16 -8 20 4 20 7 0 16 -7
19 -15z m1007 -125 c-8 -5 -17 -7 -19 -4 -3 3 1 9 9 14 8 5 17 7 19 4 3 -3 -1
-9 -9 -14z m-1690 -30 c0 -5 -5 -10 -11 -10 -5 0 -7 5 -4 10 3 6 8 10 11 10 2
0 4 -4 4 -10z m943 -52 c7 -59 9 -55 -18 -60 -17 -2 -20 3 -23 37 -6 94 31
113 41 23z m823 7 c-23 -17 -36 -19 -36 -6 0 5 8 12 18 14 32 9 37 6 18 -8z
m-685 -38 c-10 -9 -11 -8 -5 6 3 10 9 15 12 12 3 -3 0 -11 -7 -18z m487 -12
c-3 -3 -9 2 -12 12 -6 14 -5 15 5 6 7 -7 10 -15 7 -18z m-1644 -86 c4 6 12 11
18 11 7 0 6 -6 -2 -15 -13 -16 -60 -21 -60 -6 0 13 24 20 31 8 4 -5 9 -5 13 2z
m146 -63 c0 -2 -7 -7 -16 -10 -8 -3 -12 -2 -9 4 6 10 25 14 25 6z m30 -46 c0
-5 -4 -10 -10 -10 -5 0 -10 5 -10 10 0 6 5 10 10 10 6 0 10 -4 10 -10z m-199
-54 c-6 -7 -9 -22 -5 -32 5 -16 4 -16 -5 -4 -16 22 -13 50 5 50 13 0 14 -3 5
-14z m2172 -141 c-3 -9 -8 -14 -10 -11 -3 3 -2 9 2 15 9 16 15 13 8 -4z
m-2084 -76 c-16 -10 -23 -4 -14 10 3 6 11 8 17 5 6 -4 5 -9 -3 -15z m1 -47 c0
-15 -2 -15 -10 -2 -13 20 -13 33 0 25 6 -3 10 -14 10 -23z m50 -187 c-7 -8 -9
-15 -4 -15 5 0 1 -5 -9 -11 -13 -8 -15 -15 -7 -28 5 -10 6 -22 2 -26 -4 -4 3
-6 15 -3 21 6 21 5 7 -18 -9 -13 -14 -29 -11 -36 4 -9 6 -8 6 3 1 19 31 48 31
31 0 -6 -4 -13 -9 -16 -11 -7 -21 -56 -11 -56 4 0 11 11 14 25 3 13 15 29 25
34 17 10 17 8 -2 -29 -10 -22 -26 -40 -36 -40 -28 -1 9 -17 57 -25 23 -4 42
-11 42 -16 0 -6 -4 -8 -9 -4 -5 3 -12 1 -16 -5 -3 -5 -1 -10 4 -10 6 0 11 -4
11 -10 0 -5 -6 -9 -12 -7 -8 1 -13 -10 -14 -28 0 -17 -3 -35 -6 -40 -3 -6 -8
-22 -12 -37 -11 -48 -26 -30 -26 32 0 49 -4 64 -22 82 -16 16 -23 35 -23 61 0
21 -1 33 -3 27 -3 -7 -13 -3 -27 10 -31 29 -23 68 29 147 11 17 22 30 25 28 2
-3 -2 -11 -9 -20z m-240 5 c0 -5 -2 -10 -4 -10 -3 0 -8 5 -11 10 -3 6 -1 10 4
10 6 0 11 -4 11 -10z m160 -144 c-1 -5 3 -12 9 -15 5 -4 -11 -16 -35 -28 -50
-25 -51 -21 -14 26 23 28 44 37 40 17z m170 4 c0 -5 -4 -10 -10 -10 -5 0 -10
-9 -10 -20 0 -11 -4 -20 -10 -20 -13 0 -13 3 2 35 11 25 28 34 28 15z m30 -24
c0 -3 -4 -8 -10 -11 -5 -3 -10 -1 -10 4 0 6 5 11 10 11 6 0 10 -2 10 -4z
m1830 -45 c0 -10 -104 -71 -121 -71 -6 0 -22 -9 -36 -20 -30 -24 -60 -26 -60
-5 0 8 5 14 11 13 13 -1 43 9 71 25 60 34 121 66 128 66 4 1 7 -3 7 -8z
m-2115 -11 c-3 -5 -11 -10 -16 -10 -6 0 -7 5 -4 10 3 6 11 10 16 10 6 0 7 -4
4 -10z m2385 -64 c0 -2 -7 -7 -16 -10 -8 -3 -12 -2 -9 4 6 10 25 14 25 6z
m-567 -106 c-61 -53 -140 -55 -83 -2 14 13 30 17 56 14 19 -2 32 -8 27 -12z
m-153 -37 c0 -14 -14 -28 -69 -71 -47 -37 -61 -43 -95 -40 -55 4 -55 22 -2 53
25 15 46 31 46 37 0 6 7 7 15 4 9 -3 18 1 21 9 6 15 84 22 84 8z m-910 -97 c0
-9 -30 -14 -35 -6 -4 6 3 10 14 10 12 0 21 -2 21 -4z m98 -13 c-10 -2 -28 -2
-40 0 -13 2 -5 4 17 4 22 1 32 -1 23 -4z m222 -23 c0 -5 -2 -10 -4 -10 -3 0
-8 5 -11 10 -3 6 -1 10 4 10 6 0 11 -4 11 -10z m300 -10 c0 -5 -7 -10 -15 -10
-8 0 -15 5 -15 10 0 6 7 10 15 10 8 0 15 -4 15 -10z m515 -172 c-2 -7 -13 -43
-24 -80 -11 -36 -33 -98 -50 -137 -16 -38 -33 -91 -37 -118 -3 -26 -17 -74
-30 -105 -15 -36 -24 -77 -24 -111 0 -43 -6 -63 -32 -101 -28 -44 -30 -51 -20
-80 20 -53 11 -110 -24 -170 -12 -19 -13 -19 -63 2 -65 27 -103 21 -154 -25
-20 -18 -41 -33 -46 -33 -5 0 -2 19 6 42 10 30 12 51 5 77 -6 21 -10 28 -11
16 -2 -34 -21 5 -21 43 0 18 -5 42 -10 53 -10 18 -15 130 -8 194 3 25 8 30 38
35 65 11 103 66 63 89 -17 10 -17 10 0 11 10 0 37 20 60 44 23 24 65 59 92 78
28 18 52 38 55 43 2 6 25 28 51 50 25 22 77 75 114 118 68 78 78 87 70 65z
m-520 -461 c0 -4 -15 -17 -32 -28 l-33 -21 0 32 c0 29 2 31 33 28 17 -2 32 -7
32 -11z m-247 -205 c40 -51 54 -92 31 -92 -5 0 -19 20 -30 45 -11 25 -28 53
-38 63 -10 9 -22 28 -26 42 -7 21 -6 22 7 10 8 -8 33 -39 56 -68z m97 -62 c-3
-5 -13 -10 -21 -10 -8 0 -12 5 -9 10 3 6 13 10 21 10 8 0 12 -4 9 -10z m-1764
-73 c-10 -9 -11 -8 -5 6 3 10 9 15 12 12 3 -3 0 -11 -7 -18z m4 -157 c3 -5 2
-10 -4 -10 -5 0 -13 5 -16 10 -3 6 -2 10 4 10 5 0 13 -4 16 -10z"/>
<path d="M3588 2699 c-10 -5 -15 -16 -11 -25 4 -12 8 -11 20 6 18 25 14 32 -9
19z"/>
<path d="M3081 2493 c-10 -26 -10 -27 4 -9 8 11 15 23 15 28 0 15 -7 8 -19
-19z"/>
<path d="M3306 2051 c-4 -7 -5 -15 -2 -18 9 -9 19 4 14 18 -4 11 -6 11 -12 0z"/>
<path d="M2862 1958 c-16 -16 -15 -28 1 -28 7 0 13 9 14 20 2 23 1 24 -15 8z"/>
<path d="M2475 1945 c-5 -2 -22 -6 -37 -9 -25 -6 -28 -11 -28 -46 0 -29 6 -43
22 -54 31 -22 52 -20 84 7 30 26 25 52 -7 42 -10 -4 -19 -3 -19 2 1 19 18 32
53 38 20 4 37 11 37 16 0 8 -83 12 -105 4z"/>
<path d="M3040 1861 c0 -10 19 -25 25 -20 1 2 -3 10 -11 17 -8 7 -14 8 -14 3z"/>
<path d="M3187 1783 c-4 -3 -7 -11 -7 -17 0 -6 5 -5 12 2 6 6 9 14 7 17 -3 3
-9 2 -12 -2z"/>
<path d="M2789 1674 c-24 -29 -20 -45 9 -38 35 9 37 11 24 27 -7 8 -9 17 -5
20 3 4 2 7 -4 7 -6 0 -17 -7 -24 -16z"/>
<path d="M2945 1611 c-3 -5 -1 -12 5 -16 5 -3 10 1 10 9 0 18 -6 21 -15 7z"/>
<path d="M2303 3705 c2 -5 10 -10 17 -10 7 0 15 5 17 10 2 6 -6 11 -17 11 -11
0 -19 -5 -17 -11z"/>
<path d="M5855 3150 c-3 -5 1 -10 9 -10 9 0 16 5 16 10 0 6 -4 10 -9 10 -6 0
-13 -4 -16 -10z"/>
<path d="M5734 3090 c-31 -46 -28 -56 9 -39 21 10 26 18 25 45 -1 19 -3 34 -4
34 -2 0 -16 -18 -30 -40z"/>
<path d="M4710 3060 c0 -11 -5 -20 -11 -20 -5 0 -7 -4 -4 -10 3 -5 1 -10 -4
-10 -20 0 -51 -40 -51 -65 0 -20 44 -85 73 -106 5 -3 11 -24 14 -45 4 -29 1
-43 -11 -53 -9 -7 -16 -21 -16 -30 0 -9 -4 -21 -9 -26 -4 -6 -11 -22 -15 -37
-6 -25 -2 -29 29 -42 19 -8 39 -25 44 -38 15 -40 21 -123 11 -157 -8 -29 -6
-36 16 -58 14 -14 26 -37 27 -52 2 -24 -1 -26 -34 -26 -27 0 -44 -7 -61 -26
-20 -22 -35 -27 -99 -31 -40 -4 -109 -3 -151 1 -78 6 -78 6 -78 -17 0 -24 1
-24 83 -19 45 3 93 8 107 11 14 4 113 8 220 10 107 2 209 8 225 14 17 6 42 13
58 16 30 7 34 18 14 38 -8 7 -17 31 -20 53 -4 22 -14 45 -22 51 -20 15 -48 68
-70 136 -9 29 -28 76 -42 103 -28 55 -63 160 -83 245 -7 30 -20 75 -31 100
-10 25 -21 60 -24 78 -6 30 -10 32 -46 32 -32 0 -39 -3 -39 -20z"/>
<path d="M5236 2734 c-20 -20 -20 -38 0 -54 22 -19 49 9 40 44 -7 30 -18 33
-40 10z"/>
<path d="M0 1971 c0 -475 3 -709 11 -722 16 -30 18 -196 2 -226 -10 -19 -13
-97 -13 -320 l0 -295 53 7 c28 4 63 12 77 17 44 17 132 39 215 53 44 8 109 21
145 29 36 9 126 24 200 36 166 24 281 49 296 64 6 6 24 45 39 86 15 41 37 93
48 115 33 65 36 124 12 217 -22 86 -19 142 14 248 16 52 32 108 35 124 7 26
83 165 127 228 11 15 19 34 19 42 0 8 6 21 13 28 6 8 17 23 24 34 10 19 9 21
-15 21 -15 0 -56 1 -92 2 -81 3 -511 -31 -560 -44 -98 -27 -171 -27 -293 2
-86 19 -122 9 -114 -34 6 -31 -9 -77 -22 -69 -16 10 -19 44 -7 68 15 28 14 17
16 178 1 69 -4 161 -10 205 -7 44 -13 109 -15 144 -2 35 -8 84 -14 110 -5 25
-12 63 -16 83 -10 61 -71 170 -125 223 l-50 49 0 -703z m82 239 c8 -58 11
-116 8 -130 -6 -24 -7 -24 -17 -5 -12 21 -23 259 -11 247 3 -4 12 -54 20 -112z
m62 -626 c-1 -49 -10 -66 -24 -44 -11 17 -13 93 -3 104 14 14 28 -17 27 -60z
m277 -248 c32 -16 73 -27 121 -31 74 -6 98 -17 98 -41 0 -8 7 -14 15 -14 9 0
15 -6 14 -12 -3 -18 11 -49 31 -73 37 -43 31 -95 -11 -95 -10 0 -22 -7 -27
-16 -5 -9 -29 -20 -53 -26 -229 -49 -359 -50 -359 -2 0 8 -4 13 -9 9 -6 -3
-10 29 -10 77 0 46 -3 112 -6 148 l-7 65 39 22 c48 27 97 24 164 -11z m-275
-20 c21 -22 19 -115 -3 -132 -16 -12 -16 -13 -2 -14 17 0 29 -19 29 -46 0 -25
-38 -15 -64 18 -21 27 -23 34 -11 41 20 11 19 62 -2 82 -16 16 -16 18 0 27 9
5 17 16 17 23 0 19 17 19 36 1z m433 -362 c41 -5 61 -11 61 -20 0 -8 -5 -14
-12 -14 -6 0 -3 -10 8 -21 14 -16 16 -23 6 -26 -6 -3 -10 -9 -6 -14 3 -5 -8
-14 -24 -20 -17 -6 -33 -16 -36 -24 -2 -7 -18 -16 -35 -20 -16 -3 -35 -13 -42
-21 -6 -8 -26 -14 -45 -14 -18 0 -44 -4 -57 -9 -33 -13 -209 -43 -215 -37 -2
3 -7 25 -9 50 -4 35 -1 50 16 72 11 15 21 37 21 49 0 55 177 89 369 69z"/>
<path d="M1030 2438 c-30 -28 -50 -53 -44 -55 6 -2 9 -15 6 -28 -3 -17 1 -27
12 -31 9 -3 16 -12 16 -20 0 -8 7 -14 15 -14 16 0 21 -35 7 -44 -5 -3 -21 4
-38 15 -49 32 -107 17 -127 -33 -3 -10 -11 -18 -16 -18 -5 0 -12 -9 -16 -19
-3 -11 -22 -25 -41 -31 -32 -11 -37 -10 -50 9 -20 27 -28 27 -99 -9 -57 -28
-60 -29 -67 -11 -11 30 -46 36 -76 14 -31 -23 -39 -36 -52 -90 -6 -26 -17 -43
-25 -43 -8 0 -19 -9 -25 -20 -14 -26 -20 -25 -64 5 l-36 24 0 -81 0 -80 123 6
c67 3 174 10 237 16 63 5 201 12 305 15 184 6 255 16 255 36 0 6 -5 20 -12 32
-7 12 -15 60 -18 107 l-5 85 -30 -2 c-16 -1 -33 3 -37 10 -15 23 -8 96 12 129
28 47 25 88 -10 136 -17 23 -33 42 -38 42 -4 0 -32 -24 -62 -52z"/>
<path d="M813 2407 c-30 -44 -30 -74 1 -89 21 -9 29 -7 58 17 39 33 43 53 16
82 -29 31 -49 29 -75 -10z"/>
<path d="M4091 2381 c-9 -6 -6 -10 10 -14 28 -8 34 -3 16 11 -7 6 -19 7 -26 3z"/>
<path d="M4169 2080 c-31 -16 -100 -90 -84 -90 11 0 110 72 118 87 13 22 5 23
-34 3z"/>
<path d="M6115 2066 c-57 -10 -60 -12 -57 -38 2 -18 11 -29 25 -33 12 -4 43
-18 70 -31 l47 -25 0 70 c0 51 -4 71 -12 70 -7 -1 -40 -7 -73 -13z"/>
<path d="M4224 2036 c-47 -21 -50 -37 -4 -19 22 9 40 20 40 25 0 10 2 10 -36
-6z"/>
<path d="M4181 1969 c-33 -13 -81 -48 -81 -61 0 -6 14 -8 38 -4 20 3 60 6 89
7 32 0 56 5 63 15 10 11 9 14 -8 14 -12 0 -24 5 -27 10 -4 6 -11 8 -16 5 -5
-4 -9 -2 -9 3 0 15 -23 20 -49 11z"/>
<path d="M4142 1880 c-42 -10 -53 -20 -21 -20 14 0 34 7 45 15 10 8 17 14 14
14 -3 -1 -20 -5 -38 -9z"/>
<path d="M4165 1841 c-55 -32 -92 -67 -81 -78 4 -4 15 -2 24 5 9 7 43 25 75
41 56 28 60 29 94 15 56 -24 76 -37 109 -71 37 -39 44 -41 37 -10 -7 25 -63
86 -63 67 0 -9 -6 -9 -22 2 -13 9 -23 24 -23 34 0 16 -9 19 -50 22 -40 2 -60
-3 -100 -27z"/>
<path d="M4185 1291 c-22 -4 -48 -12 -59 -18 -14 -8 -1 -10 55 -7 56 2 73 7
75 19 2 16 -6 17 -71 6z"/>
<path d="M4046 1233 c-3 -4 -6 -14 -6 -24 0 -13 6 -17 21 -14 30 6 31 9 10 27
-11 9 -22 14 -25 11z"/>
<path d="M4010 1166 c-19 -19 -10 -25 18 -14 40 17 44 23 16 23 -14 0 -29 -4
-34 -9z"/>
<path d="M3875 1138 c4 -13 6 -33 6 -44 0 -15 7 -23 24 -27 14 -2 28 -1 30 3
8 13 -23 77 -40 84 -26 9 -28 8 -20 -16z"/>
<path d="M3986 1103 c-6 -14 -5 -15 5 -6 7 7 10 15 7 18 -3 3 -9 -2 -12 -12z"/>
<path d="M3960 1062 c0 -5 7 -9 15 -9 8 0 15 4 15 9 0 4 -7 8 -15 8 -8 0 -15
-4 -15 -8z"/>
<path d="M4003 1040 c-13 -5 -23 -12 -23 -16 0 -8 53 5 65 17 12 12 -12 11
-42 -1z"/>
<path d="M4696 1041 c-8 -13 26 -31 58 -31 36 0 42 18 9 26 -15 3 -35 8 -45
10 -9 3 -19 0 -22 -5z"/>
<path d="M3868 1033 c7 -3 16 -2 19 1 4 3 -2 6 -13 5 -11 0 -14 -3 -6 -6z"/>
<path d="M3820 1026 c0 -2 8 -10 18 -17 15 -13 16 -12 3 4 -13 16 -21 21 -21
13z"/>
<path d="M4840 1020 c-12 -8 -10 -10 8 -10 13 0 20 4 17 10 -7 12 -6 12 -25 0z"/>
<path d="M4068 1003 c7 -3 16 -2 19 1 4 3 -2 6 -13 5 -11 0 -14 -3 -6 -6z"/>
<path d="M4152 809 c13 -17 33 -48 44 -68 23 -37 44 -46 52 -22 3 8 0 11 -7 7
-7 -5 -11 1 -11 15 0 22 -69 99 -90 99 -6 0 -1 -13 12 -31z"/>
<path d="M4240 599 c0 -5 5 -7 10 -4 6 3 10 8 10 11 0 2 -4 4 -10 4 -5 0 -10
-5 -10 -11z"/>
<path d="M5690 319 c0 -5 5 -7 10 -4 6 3 10 8 10 11 0 2 -4 4 -10 4 -5 0 -10
-5 -10 -11z"/>
<path d="M5770 180 c19 -13 30 -13 30 0 0 6 -10 10 -22 10 -19 0 -20 -2 -8
-10z"/>
<path d="M6066 165 c10 -8 26 -14 34 -14 11 0 10 3 -4 14 -11 8 -27 15 -35 15
-11 0 -10 -4 5 -15z"/>
<path d="M5098 163 c7 -3 16 -2 19 1 4 3 -2 6 -13 5 -11 0 -14 -3 -6 -6z"/>
<path d="M5990 109 c0 -5 5 -7 10 -4 6 3 10 8 10 11 0 2 -4 4 -10 4 -5 0 -10
-5 -10 -11z"/>
<path d="M4014 50 l-11 -50 60 0 c59 0 60 0 42 20 -17 19 -17 20 -1 20 9 0 15
4 11 10 -3 5 -13 6 -22 3 -11 -4 -14 -3 -9 5 5 8 -1 12 -18 12 -14 0 -29 7
-33 15 -7 11 -12 1 -19 -35z"/>
<path d="M5540 80 c0 -5 7 -10 16 -10 8 0 12 5 9 10 -3 6 -10 10 -16 10 -5 0
-9 -4 -9 -10z"/>
<path d="M6055 80 c3 -5 8 -10 11 -10 2 0 4 5 4 10 0 6 -5 10 -11 10 -5 0 -7
-4 -4 -10z"/>
<path d="M6106 65 c-3 -9 0 -15 9 -15 16 0 20 16 6 24 -5 3 -11 -1 -15 -9z"/>
<path d="M4178 43 c7 -3 16 -2 19 1 4 3 -2 6 -13 5 -11 0 -14 -3 -6 -6z"/>
<path d="M5070 40 c0 -5 5 -10 10 -10 6 0 10 5 10 10 0 6 -4 10 -10 10 -5 0
-10 -4 -10 -10z"/>
<path d="M6070 40 c0 -5 5 -10 10 -10 6 0 10 5 10 10 0 6 -4 10 -10 10 -5 0
-10 -4 -10 -10z"/>
<path d="M6120 18 c0 -8 15 -14 38 -15 35 -2 36 -2 18 12 -24 18 -56 20 -56 3z"/>
<path d="M6088 3 c7 -3 16 -2 19 1 4 3 -2 6 -13 5 -11 0 -14 -3 -6 -6z"/>
</g>
</svg>
