<svg width="321" height="132" viewBox="0 0 321 132" fill="none" xmlns="http://www.w3.org/2000/svg">
<g filter="url(#filter0_d_4_30)">
<path d="M41.1347 25.5273C32.8605 35.2028 31.6195 58.4239 51.4778 66.1643C71.3361 73.9047 83.8854 62.9391 88.7121 54.5537" stroke="#F4279D" stroke-width="6.7108"/>
<path d="M41.1348 25.5278C45.2719 19.7225 60.2194 6.98274 78.3691 17.7874C85.9539 22.9477 98.6412 37.5255 88.712 54.5544" stroke="#31A8F7" stroke-width="6.7108"/>
<path d="M59.7526 70.0371V122.285M45.2726 89.388H74.2327" stroke="#F4279D" stroke-width="6.7108"/>
<path d="M85.8743 3.29502L101.009 3.36474L102.33 18.672" stroke="#31A8F7" stroke-width="6"/>
<path d="M99.1058 6.05126L84.0352 19.9546" stroke="#31A8F7" stroke-width="6"/>
<mask id="path-6-outside-1_4_30" maskUnits="userSpaceOnUse" x="1" y="15" width="147" height="47" fill="black">
<rect fill="white" x="1" y="15" width="147" height="47"/>
<path d="M11.2205 27.5934V36.9886H23.8368V42.9478H11.2205V52.8797H25.4474V59H3.70436V21.4732H25.4474V27.5934H11.2205Z"/>
<path d="M129.687 29.2577V59H122.117V55.242C121.151 56.5304 119.88 57.5505 118.305 58.3021C116.766 59.0179 115.084 59.3758 113.259 59.3758C110.932 59.3758 108.874 58.8926 107.085 57.9263C105.295 56.9241 103.881 55.4746 102.843 53.5777C101.841 51.645 101.34 49.3543 101.34 46.7058V29.2577H108.856V45.6321C108.856 47.9943 109.447 49.8196 110.628 51.1081C111.809 52.3608 113.42 52.9871 115.46 52.9871C117.536 52.9871 119.164 52.3608 120.345 51.1081C121.526 49.8196 122.117 47.9943 122.117 45.6321V29.2577H129.687ZM140.914 25.7144C139.59 25.7144 138.48 25.3028 137.586 24.4796C136.727 23.6207 136.297 22.5648 136.297 21.3121C136.297 20.0595 136.727 19.0215 137.586 18.1983C138.48 17.3393 139.59 16.9099 140.914 16.9099C142.239 16.9099 143.33 17.3393 144.189 18.1983C145.084 19.0215 145.531 20.0595 145.531 21.3121C145.531 22.5648 145.084 23.6207 144.189 24.4796C143.33 25.3028 142.239 25.7144 140.914 25.7144ZM144.619 29.2577V59H137.103V29.2577H144.619Z"/>
</mask>
<path d="M11.2205 27.5934V36.9886H23.8368V42.9478H11.2205V52.8797H25.4474V59H3.70436V21.4732H25.4474V27.5934H11.2205Z" fill="#F4279D"/>
<path d="M129.687 29.2577V59H122.117V55.242C121.151 56.5304 119.88 57.5505 118.305 58.3021C116.766 59.0179 115.084 59.3758 113.259 59.3758C110.932 59.3758 108.874 58.8926 107.085 57.9263C105.295 56.9241 103.881 55.4746 102.843 53.5777C101.841 51.645 101.34 49.3543 101.34 46.7058V29.2577H108.856V45.6321C108.856 47.9943 109.447 49.8196 110.628 51.1081C111.809 52.3608 113.42 52.9871 115.46 52.9871C117.536 52.9871 119.164 52.3608 120.345 51.1081C121.526 49.8196 122.117 47.9943 122.117 45.6321V29.2577H129.687ZM140.914 25.7144C139.59 25.7144 138.48 25.3028 137.586 24.4796C136.727 23.6207 136.297 22.5648 136.297 21.3121C136.297 20.0595 136.727 19.0215 137.586 18.1983C138.48 17.3393 139.59 16.9099 140.914 16.9099C142.239 16.9099 143.33 17.3393 144.189 18.1983C145.084 19.0215 145.531 20.0595 145.531 21.3121C145.531 22.5648 145.084 23.6207 144.189 24.4796C143.33 25.3028 142.239 25.7144 140.914 25.7144ZM144.619 29.2577V59H137.103V29.2577H144.619Z" fill="#31A8F7"/>
<path d="M11.2205 27.5934V25.7791H9.40608V27.5934H11.2205ZM11.2205 36.9886H9.40608V38.8029H11.2205V36.9886ZM23.8368 36.9886H25.6511V35.1742H23.8368V36.9886ZM23.8368 42.9478V44.7621H25.6511V42.9478H23.8368ZM11.2205 42.9478V41.1334H9.40608V42.9478H11.2205ZM11.2205 52.8797H9.40608V54.6941H11.2205V52.8797ZM25.4474 52.8797H27.2617V51.0654H25.4474V52.8797ZM25.4474 59V60.8144H27.2617V59H25.4474ZM3.70436 59H1.88998V60.8144H3.70436V59ZM3.70436 21.4732V19.6588H1.88998V21.4732H3.70436ZM25.4474 21.4732H27.2617V19.6588H25.4474V21.4732ZM25.4474 27.5934V29.4078H27.2617V27.5934H25.4474ZM9.40608 27.5934V36.9886H13.0348V27.5934H9.40608ZM11.2205 38.8029H23.8368V35.1742H11.2205V38.8029ZM22.0224 36.9886V42.9478H25.6511V36.9886H22.0224ZM23.8368 41.1334H11.2205V44.7621H23.8368V41.1334ZM9.40608 42.9478V52.8797H13.0348V42.9478H9.40608ZM11.2205 54.6941H25.4474V51.0654H11.2205V54.6941ZM23.633 52.8797V59H27.2617V52.8797H23.633ZM25.4474 57.1856H3.70436V60.8144H25.4474V57.1856ZM5.51874 59V21.4732H1.88998V59H5.51874ZM3.70436 23.2876H25.4474V19.6588H3.70436V23.2876ZM23.633 21.4732V27.5934H27.2617V21.4732H23.633ZM25.4474 25.7791H11.2205V29.4078H25.4474V25.7791ZM129.687 29.2577H131.501V27.4433H129.687V29.2577ZM129.687 59V60.8144H131.501V59H129.687ZM122.117 59H120.302V60.8144H122.117V59ZM122.117 55.242H123.931V49.7988L120.665 54.1533L122.117 55.242ZM118.305 58.3021L119.07 59.9472L119.079 59.9434L119.087 59.9395L118.305 58.3021ZM107.085 57.9263L106.198 59.5093L106.21 59.5161L106.223 59.5228L107.085 57.9263ZM102.843 53.5777L101.233 54.4129L101.242 54.4308L101.252 54.4486L102.843 53.5777ZM101.34 29.2577V27.4433H99.5259V29.2577H101.34ZM108.856 29.2577H110.671V27.4433H108.856V29.2577ZM110.628 51.1081L109.291 52.3341L109.299 52.3435L109.308 52.3528L110.628 51.1081ZM120.345 51.1081L121.665 52.3528L121.674 52.3435L121.683 52.3341L120.345 51.1081ZM122.117 29.2577V27.4433H120.302V29.2577H122.117ZM127.872 29.2577V59H131.501V29.2577H127.872ZM129.687 57.1856H122.117V60.8144H129.687V57.1856ZM123.931 59V55.242H120.302V59H123.931ZM120.665 54.1533C119.889 55.1882 118.857 56.0284 117.524 56.6646L119.087 59.9395C120.903 59.0725 122.412 57.8726 123.568 56.3306L120.665 54.1533ZM117.54 56.6569C116.258 57.253 114.84 57.5614 113.259 57.5614V61.1902C115.328 61.1902 117.274 60.7828 119.07 59.9472L117.54 56.6569ZM113.259 57.5614C111.189 57.5614 109.435 57.1337 107.947 56.3298L106.223 59.5228C108.313 60.6516 110.675 61.1902 113.259 61.1902V57.5614ZM107.971 56.3432C106.495 55.5167 105.319 54.3218 104.435 52.7067L101.252 54.4486C102.444 56.6274 104.095 58.3315 106.198 59.5093L107.971 56.3432ZM104.454 52.7425C103.612 51.1179 103.155 49.1258 103.155 46.7058H99.5259C99.5259 49.5828 100.071 52.172 101.233 54.4129L104.454 52.7425ZM103.155 46.7058V29.2577H99.5259V46.7058H103.155ZM101.34 31.0721H108.856V27.4433H101.34V31.0721ZM107.042 29.2577V45.6321H110.671V29.2577H107.042ZM107.042 45.6321C107.042 48.2863 107.708 50.6083 109.291 52.3341L111.965 49.8821C111.185 49.031 110.671 47.7022 110.671 45.6321H107.042ZM109.308 52.3528C110.895 54.0361 113.02 54.8015 115.46 54.8015V51.1727C113.819 51.1727 112.723 50.6855 111.948 49.8634L109.308 52.3528ZM115.46 54.8015C117.924 54.8015 120.072 54.0426 121.665 52.3528L119.025 49.8634C118.256 50.679 117.147 51.1727 115.46 51.1727V54.8015ZM121.683 52.3341C123.265 50.6083 123.931 48.2863 123.931 45.6321H120.302C120.302 47.7022 119.788 49.031 119.008 49.8821L121.683 52.3341ZM123.931 45.6321V29.2577H120.302V45.6321H123.931ZM122.117 31.0721H129.687V27.4433H122.117V31.0721ZM137.586 24.4796L136.303 25.7626L136.329 25.7893L136.357 25.8149L137.586 24.4796ZM137.586 18.1983L138.841 19.5083L138.842 19.5072L137.586 18.1983ZM144.189 18.1983L142.906 19.4813L142.933 19.508L142.961 19.5336L144.189 18.1983ZM144.189 24.4796L145.444 25.7896L145.446 25.7885L144.189 24.4796ZM144.619 29.2577H146.433V27.4433H144.619V29.2577ZM144.619 59V60.8144H146.433V59H144.619ZM137.103 59H135.288V60.8144H137.103V59ZM137.103 29.2577V27.4433H135.288V29.2577H137.103ZM140.914 23.9C140.001 23.9 139.343 23.6308 138.814 23.1444L136.357 25.8149C137.618 26.9748 139.179 27.5288 140.914 27.5288V23.9ZM138.869 23.1967C138.362 22.6896 138.112 22.1004 138.112 21.3121H134.483C134.483 23.0292 135.092 24.5517 136.303 25.7626L138.869 23.1967ZM138.112 21.3121C138.112 20.5248 138.36 19.9695 138.841 19.5083L136.33 16.8884C135.094 18.0735 134.483 19.5942 134.483 21.3121H138.112ZM138.842 19.5072C139.375 18.996 140.023 18.7242 140.914 18.7242V15.0955C139.156 15.0955 137.586 15.6827 136.329 16.8895L138.842 19.5072ZM140.914 18.7242C141.805 18.7242 142.42 18.9949 142.906 19.4813L145.472 16.9154C144.24 15.6838 142.672 15.0955 140.914 15.0955V18.7242ZM142.961 19.5336C143.469 20.0016 143.717 20.5495 143.717 21.3121H147.346C147.346 19.5694 146.698 18.0415 145.418 16.8631L142.961 19.5336ZM143.717 21.3121C143.717 22.0763 143.467 22.6578 142.933 23.1708L145.446 25.7885C146.701 24.5835 147.346 23.0533 147.346 21.3121H143.717ZM142.934 23.1697C142.452 23.6314 141.828 23.9 140.914 23.9V27.5288C142.649 27.5288 144.208 26.9742 145.444 25.7896L142.934 23.1697ZM142.804 29.2577V59H146.433V29.2577H142.804ZM144.619 57.1856H137.103V60.8144H144.619V57.1856ZM138.917 59V29.2577H135.288V59H138.917ZM137.103 31.0721H144.619V27.4433H137.103V31.0721Z" fill="white" mask="url(#path-6-outside-1_4_30)"/>
<mask id="path-8-outside-2_4_30" maskUnits="userSpaceOnUse" x="74.9686" y="63.4531" width="234" height="61" fill="black">
<rect fill="white" x="74.9686" y="63.4531" width="234" height="61"/>
<path d="M77.3252 92.4746C77.3252 89.4682 77.9158 86.8018 79.0969 84.4753C80.3138 82.1489 81.9422 80.3594 83.9823 79.1067C86.0582 77.854 88.3667 77.2277 90.9079 77.2277C93.1269 77.2277 95.0596 77.6751 96.706 78.5698C98.3882 79.4646 99.7303 80.592 100.732 81.9521V77.7109H108.302V107.453H100.732V103.105C99.7661 104.5 98.424 105.664 96.706 106.594C95.0238 107.489 93.0732 107.936 90.8542 107.936C88.3488 107.936 86.0582 107.292 83.9823 106.004C81.9422 104.715 80.3138 102.908 79.0969 100.581C77.9158 98.2191 77.3252 95.5168 77.3252 92.4746ZM100.732 92.582C100.732 90.7567 100.375 89.1997 99.6588 87.9113C98.9429 86.587 97.9766 85.5849 96.7597 84.9048C95.5428 84.189 94.2364 83.8311 92.8406 83.8311C91.4447 83.8311 90.1563 84.1711 88.9752 84.8511C87.7941 85.5312 86.8277 86.5333 86.0761 87.8576C85.3603 89.1461 85.0024 90.6851 85.0024 92.4746C85.0024 94.2642 85.3603 95.839 86.0761 97.199C86.8277 98.5233 87.7941 99.5433 88.9752 100.259C90.1921 100.975 91.4805 101.333 92.8406 101.333C94.2364 101.333 95.5428 100.993 96.7597 100.313C97.9766 99.597 98.9429 98.5949 99.6588 97.3064C100.375 95.9821 100.732 94.4073 100.732 92.582ZM123.159 82.3279C124.126 80.7531 125.378 79.5183 126.917 78.6235C128.492 77.7287 130.282 77.2814 132.286 77.2814V85.1733H130.299C127.937 85.1733 126.148 85.728 124.931 86.8375C123.75 87.9471 123.159 89.8798 123.159 92.6357V107.453H115.643V77.7109H123.159V82.3279ZM164.997 91.9378C164.997 93.0115 164.925 93.9778 164.782 94.8368H143.039C143.218 96.9843 143.97 98.6664 145.294 99.8833C146.618 101.1 148.247 101.709 150.179 101.709C152.971 101.709 154.957 100.51 156.139 98.1117H164.245C163.386 100.975 161.74 103.337 159.306 105.198C156.872 107.024 153.884 107.936 150.34 107.936C147.477 107.936 144.9 107.31 142.61 106.057C140.355 104.769 138.583 102.961 137.295 100.635C136.042 98.3085 135.416 95.6242 135.416 92.582C135.416 89.504 136.042 86.8018 137.295 84.4753C138.547 82.1489 140.301 80.3594 142.556 79.1067C144.811 77.854 147.406 77.2277 150.34 77.2277C153.168 77.2277 155.691 77.8361 157.91 79.053C160.165 80.2699 161.901 82.0058 163.118 84.2606C164.37 86.4796 164.997 89.0387 164.997 91.9378ZM157.212 89.7903C157.176 87.8576 156.479 86.3186 155.119 85.1733C153.758 83.9922 152.094 83.4016 150.126 83.4016C148.265 83.4016 146.69 83.9743 145.401 85.1196C144.149 86.2291 143.379 87.786 143.093 89.7903H157.212ZM186.965 77.2814C190.508 77.2814 193.371 78.4088 195.554 80.6636C197.738 82.8826 198.829 85.9965 198.829 90.005V107.453H191.313V91.0251C191.313 88.6629 190.723 86.8554 189.542 85.6028C188.36 84.3143 186.75 83.67 184.71 83.67C182.634 83.67 180.988 84.3143 179.771 85.6028C178.59 86.8554 177.999 88.6629 177.999 91.0251V107.453H170.483V77.7109H177.999V81.4152C179.001 80.1267 180.272 79.1246 181.811 78.4088C183.386 77.6572 185.103 77.2814 186.965 77.2814ZM214.728 83.8848V98.2727C214.728 99.2749 214.96 100.009 215.426 100.474C215.927 100.903 216.75 101.118 217.895 101.118H221.385V107.453H216.66C210.325 107.453 207.158 104.375 207.158 98.2191V83.8848H203.615V77.7109H207.158V70.3558H214.728V77.7109H221.385V83.8848H214.728ZM230.602 74.1675C229.278 74.1675 228.169 73.756 227.274 72.9328C226.415 72.0738 225.985 71.0179 225.985 69.7653C225.985 68.5126 226.415 67.4746 227.274 66.6514C228.169 65.7925 229.278 65.363 230.602 65.363C231.927 65.363 233.018 65.7925 233.877 66.6514C234.772 67.4746 235.219 68.5126 235.219 69.7653C235.219 71.0179 234.772 72.0738 233.877 72.9328C233.018 73.756 231.927 74.1675 230.602 74.1675ZM234.307 77.7109V107.453H226.791V77.7109H234.307ZM258.214 77.2814C261.758 77.2814 264.621 78.4088 266.804 80.6636C268.988 82.8826 270.079 85.9965 270.079 90.005V107.453H262.563V91.0251C262.563 88.6629 261.973 86.8554 260.791 85.6028C259.61 84.3143 258 83.67 255.96 83.67C253.884 83.67 252.237 84.3143 251.02 85.6028C249.839 86.8554 249.249 88.6629 249.249 91.0251V107.453H241.733V77.7109H249.249V81.4152C250.251 80.1267 251.522 79.1246 253.061 78.4088C254.635 77.6572 256.353 77.2814 258.214 77.2814ZM288.877 77.2277C291.096 77.2277 293.046 77.6751 294.728 78.5698C296.411 79.4288 297.735 80.5562 298.701 81.9521V77.7109H306.271V107.668C306.271 110.424 305.716 112.875 304.607 115.023C303.497 117.206 301.833 118.924 299.614 120.177C297.395 121.465 294.71 122.11 291.561 122.11C287.338 122.11 283.866 121.125 281.146 119.157C278.461 117.188 276.94 114.504 276.582 111.104H284.045C284.438 112.464 285.28 113.538 286.568 114.325C287.892 115.148 289.485 115.56 291.346 115.56C293.529 115.56 295.301 114.898 296.661 113.573C298.021 112.285 298.701 110.316 298.701 107.668V103.051C297.735 104.447 296.393 105.61 294.675 106.54C292.992 107.471 291.06 107.936 288.877 107.936C286.371 107.936 284.081 107.292 282.005 106.004C279.929 104.715 278.282 102.908 277.066 100.581C275.884 98.2191 275.294 95.5168 275.294 92.4746C275.294 89.4682 275.884 86.8018 277.066 84.4753C278.282 82.1489 279.911 80.3594 281.951 79.1067C284.027 77.854 286.335 77.2277 288.877 77.2277ZM298.701 92.582C298.701 90.7567 298.343 89.1997 297.627 87.9113C296.912 86.587 295.945 85.5849 294.728 84.9048C293.511 84.189 292.205 83.8311 290.809 83.8311C289.413 83.8311 288.125 84.1711 286.944 84.8511C285.763 85.5312 284.796 86.5333 284.045 87.8576C283.329 89.1461 282.971 90.6851 282.971 92.4746C282.971 94.2642 283.329 95.839 284.045 97.199C284.796 98.5233 285.763 99.5433 286.944 100.259C288.161 100.975 289.449 101.333 290.809 101.333C292.205 101.333 293.511 100.993 294.728 100.313C295.945 99.597 296.912 98.5949 297.627 97.3064C298.343 95.9821 298.701 94.4073 298.701 92.582Z"/>
</mask>
<path d="M77.3252 92.4746C77.3252 89.4682 77.9158 86.8018 79.0969 84.4753C80.3138 82.1489 81.9422 80.3594 83.9823 79.1067C86.0582 77.854 88.3667 77.2277 90.9079 77.2277C93.1269 77.2277 95.0596 77.6751 96.706 78.5698C98.3882 79.4646 99.7303 80.592 100.732 81.9521V77.7109H108.302V107.453H100.732V103.105C99.7661 104.5 98.424 105.664 96.706 106.594C95.0238 107.489 93.0732 107.936 90.8542 107.936C88.3488 107.936 86.0582 107.292 83.9823 106.004C81.9422 104.715 80.3138 102.908 79.0969 100.581C77.9158 98.2191 77.3252 95.5168 77.3252 92.4746ZM100.732 92.582C100.732 90.7567 100.375 89.1997 99.6588 87.9113C98.9429 86.587 97.9766 85.5849 96.7597 84.9048C95.5428 84.189 94.2364 83.8311 92.8406 83.8311C91.4447 83.8311 90.1563 84.1711 88.9752 84.8511C87.7941 85.5312 86.8277 86.5333 86.0761 87.8576C85.3603 89.1461 85.0024 90.6851 85.0024 92.4746C85.0024 94.2642 85.3603 95.839 86.0761 97.199C86.8277 98.5233 87.7941 99.5433 88.9752 100.259C90.1921 100.975 91.4805 101.333 92.8406 101.333C94.2364 101.333 95.5428 100.993 96.7597 100.313C97.9766 99.597 98.9429 98.5949 99.6588 97.3064C100.375 95.9821 100.732 94.4073 100.732 92.582ZM123.159 82.3279C124.126 80.7531 125.378 79.5183 126.917 78.6235C128.492 77.7287 130.282 77.2814 132.286 77.2814V85.1733H130.299C127.937 85.1733 126.148 85.728 124.931 86.8375C123.75 87.9471 123.159 89.8798 123.159 92.6357V107.453H115.643V77.7109H123.159V82.3279ZM164.997 91.9378C164.997 93.0115 164.925 93.9778 164.782 94.8368H143.039C143.218 96.9843 143.97 98.6664 145.294 99.8833C146.618 101.1 148.247 101.709 150.179 101.709C152.971 101.709 154.957 100.51 156.139 98.1117H164.245C163.386 100.975 161.74 103.337 159.306 105.198C156.872 107.024 153.884 107.936 150.34 107.936C147.477 107.936 144.9 107.31 142.61 106.057C140.355 104.769 138.583 102.961 137.295 100.635C136.042 98.3085 135.416 95.6242 135.416 92.582C135.416 89.504 136.042 86.8018 137.295 84.4753C138.547 82.1489 140.301 80.3594 142.556 79.1067C144.811 77.854 147.406 77.2277 150.34 77.2277C153.168 77.2277 155.691 77.8361 157.91 79.053C160.165 80.2699 161.901 82.0058 163.118 84.2606C164.37 86.4796 164.997 89.0387 164.997 91.9378ZM157.212 89.7903C157.176 87.8576 156.479 86.3186 155.119 85.1733C153.758 83.9922 152.094 83.4016 150.126 83.4016C148.265 83.4016 146.69 83.9743 145.401 85.1196C144.149 86.2291 143.379 87.786 143.093 89.7903H157.212ZM186.965 77.2814C190.508 77.2814 193.371 78.4088 195.554 80.6636C197.738 82.8826 198.829 85.9965 198.829 90.005V107.453H191.313V91.0251C191.313 88.6629 190.723 86.8554 189.542 85.6028C188.36 84.3143 186.75 83.67 184.71 83.67C182.634 83.67 180.988 84.3143 179.771 85.6028C178.59 86.8554 177.999 88.6629 177.999 91.0251V107.453H170.483V77.7109H177.999V81.4152C179.001 80.1267 180.272 79.1246 181.811 78.4088C183.386 77.6572 185.103 77.2814 186.965 77.2814ZM214.728 83.8848V98.2727C214.728 99.2749 214.96 100.009 215.426 100.474C215.927 100.903 216.75 101.118 217.895 101.118H221.385V107.453H216.66C210.325 107.453 207.158 104.375 207.158 98.2191V83.8848H203.615V77.7109H207.158V70.3558H214.728V77.7109H221.385V83.8848H214.728ZM230.602 74.1675C229.278 74.1675 228.169 73.756 227.274 72.9328C226.415 72.0738 225.985 71.0179 225.985 69.7653C225.985 68.5126 226.415 67.4746 227.274 66.6514C228.169 65.7925 229.278 65.363 230.602 65.363C231.927 65.363 233.018 65.7925 233.877 66.6514C234.772 67.4746 235.219 68.5126 235.219 69.7653C235.219 71.0179 234.772 72.0738 233.877 72.9328C233.018 73.756 231.927 74.1675 230.602 74.1675ZM234.307 77.7109V107.453H226.791V77.7109H234.307ZM258.214 77.2814C261.758 77.2814 264.621 78.4088 266.804 80.6636C268.988 82.8826 270.079 85.9965 270.079 90.005V107.453H262.563V91.0251C262.563 88.6629 261.973 86.8554 260.791 85.6028C259.61 84.3143 258 83.67 255.96 83.67C253.884 83.67 252.237 84.3143 251.02 85.6028C249.839 86.8554 249.249 88.6629 249.249 91.0251V107.453H241.733V77.7109H249.249V81.4152C250.251 80.1267 251.522 79.1246 253.061 78.4088C254.635 77.6572 256.353 77.2814 258.214 77.2814ZM288.877 77.2277C291.096 77.2277 293.046 77.6751 294.728 78.5698C296.411 79.4288 297.735 80.5562 298.701 81.9521V77.7109H306.271V107.668C306.271 110.424 305.716 112.875 304.607 115.023C303.497 117.206 301.833 118.924 299.614 120.177C297.395 121.465 294.71 122.11 291.561 122.11C287.338 122.11 283.866 121.125 281.146 119.157C278.461 117.188 276.94 114.504 276.582 111.104H284.045C284.438 112.464 285.28 113.538 286.568 114.325C287.892 115.148 289.485 115.56 291.346 115.56C293.529 115.56 295.301 114.898 296.661 113.573C298.021 112.285 298.701 110.316 298.701 107.668V103.051C297.735 104.447 296.393 105.61 294.675 106.54C292.992 107.471 291.06 107.936 288.877 107.936C286.371 107.936 284.081 107.292 282.005 106.004C279.929 104.715 278.282 102.908 277.066 100.581C275.884 98.2191 275.294 95.5168 275.294 92.4746C275.294 89.4682 275.884 86.8018 277.066 84.4753C278.282 82.1489 279.911 80.3594 281.951 79.1067C284.027 77.854 286.335 77.2277 288.877 77.2277ZM298.701 92.582C298.701 90.7567 298.343 89.1997 297.627 87.9113C296.912 86.587 295.945 85.5849 294.728 84.9048C293.511 84.189 292.205 83.8311 290.809 83.8311C289.413 83.8311 288.125 84.1711 286.944 84.8511C285.763 85.5312 284.796 86.5333 284.045 87.8576C283.329 89.1461 282.971 90.6851 282.971 92.4746C282.971 94.2642 283.329 95.839 284.045 97.199C284.796 98.5233 285.763 99.5433 286.944 100.259C288.161 100.975 289.449 101.333 290.809 101.333C292.205 101.333 293.511 100.993 294.728 100.313C295.945 99.597 296.912 98.5949 297.627 97.3064C298.343 95.9821 298.701 94.4073 298.701 92.582Z" fill="#675893"/>
<path d="M79.0969 84.4753L77.4891 83.6344L77.484 83.6442L77.479 83.654L79.0969 84.4753ZM83.9823 79.1067L83.0449 77.5532L83.0329 77.5605L83.9823 79.1067ZM96.706 78.5698L95.8396 80.164L95.8468 80.1679L95.8539 80.1717L96.706 78.5698ZM100.732 81.9521L99.2718 83.0284L102.547 87.4731V81.9521H100.732ZM100.732 77.7109V75.8965H98.9181V77.7109H100.732ZM108.302 77.7109H110.117V75.8965H108.302V77.7109ZM108.302 107.453V109.268H110.117V107.453H108.302ZM100.732 107.453H98.9181V109.268H100.732V107.453ZM100.732 103.105H102.547V97.2962L99.2407 102.072L100.732 103.105ZM96.706 106.594L97.5581 108.196L97.5702 108.19L96.706 106.594ZM83.9823 106.004L83.0135 107.538L83.0195 107.541L83.0255 107.545L83.9823 106.004ZM79.0969 100.581L77.474 101.393L77.4815 101.408L77.4891 101.422L79.0969 100.581ZM99.6588 87.9113L98.0626 88.774L98.0676 88.7833L98.0727 88.7924L99.6588 87.9113ZM96.7597 84.9048L95.8398 86.4687L95.8571 86.4789L95.8746 86.4887L96.7597 84.9048ZM88.9752 84.8511L88.0699 83.2788L88.0698 83.2788L88.9752 84.8511ZM86.0761 87.8576L84.4982 86.962L84.4941 86.9692L84.49 86.9764L86.0761 87.8576ZM86.0761 97.199L84.4705 98.0441L84.4839 98.0696L84.4982 98.0946L86.0761 97.199ZM88.9752 100.259L88.0348 101.811L88.045 101.817L88.0552 101.823L88.9752 100.259ZM96.7597 100.313L97.6448 101.897L97.6623 101.887L97.6796 101.877L96.7597 100.313ZM99.6588 97.3064L101.245 98.1875L101.25 98.1784L101.255 98.1692L99.6588 97.3064ZM79.1396 92.4746C79.1396 89.71 79.6812 87.3324 80.7147 85.2967L77.479 83.654C76.1503 86.2711 75.5108 89.2264 75.5108 92.4746H79.1396ZM80.7046 85.3163C81.7848 83.2511 83.1973 81.7179 84.9317 80.6529L83.0329 77.5605C80.6872 79.0009 78.8427 81.0467 77.4891 83.6344L80.7046 85.3163ZM84.9198 80.6601C86.6989 79.5866 88.6805 79.0421 90.9079 79.0421V75.4133C88.0529 75.4133 85.4175 76.1215 83.0449 77.5533L84.9198 80.6601ZM90.9079 79.0421C92.88 79.0421 94.5042 79.4382 95.8396 80.164L97.5724 76.9757C95.6151 75.9119 93.3738 75.4133 90.9079 75.4133V79.0421ZM95.8539 80.1717C97.3273 80.9554 98.4502 81.9133 99.2718 83.0284L102.193 80.8758C101.011 79.2708 99.4491 77.9738 97.5581 76.968L95.8539 80.1717ZM102.547 81.9521V77.7109H98.9181V81.9521H102.547ZM100.732 79.5252H108.302V75.8965H100.732V79.5252ZM106.488 77.7109V107.453H110.117V77.7109H106.488ZM108.302 105.639H100.732V109.268H108.302V105.639ZM102.547 107.453V103.105H98.9181V107.453H102.547ZM99.2407 102.072C98.4594 103.2 97.3473 104.183 95.8418 104.999L97.5702 108.19C99.5007 107.144 101.073 105.8 102.224 104.137L99.2407 102.072ZM95.854 104.992C94.4743 105.726 92.8252 106.122 90.8542 106.122V109.751C93.3213 109.751 95.5734 109.252 97.5581 108.196L95.854 104.992ZM90.8542 106.122C88.6779 106.122 86.7201 105.567 84.9392 104.462L83.0255 107.545C85.3963 109.017 88.0197 109.751 90.8542 109.751V106.122ZM84.9512 104.47C83.2049 103.367 81.7868 101.809 80.7046 99.7403L77.4891 101.422C78.8408 104.006 80.6796 106.064 83.0135 107.538L84.9512 104.47ZM80.7197 99.7698C79.6824 97.6953 79.1396 95.2781 79.1396 92.4746H75.5108C75.5108 95.7556 76.1491 98.7428 77.474 101.393L80.7197 99.7698ZM102.547 92.582C102.547 90.5209 102.142 88.6452 101.245 87.0301L98.0727 88.7924C98.6071 89.7543 98.9181 90.9924 98.9181 92.582H102.547ZM101.255 87.0485C100.389 85.4465 99.1864 84.1825 97.6448 83.321L95.8746 86.4887C96.7668 86.9873 97.497 87.7275 98.0626 88.774L101.255 87.0485ZM97.6796 83.341C96.1873 82.4631 94.5638 82.0167 92.8406 82.0167V85.6455C93.9091 85.6455 94.8983 85.9149 95.8398 86.4687L97.6796 83.341ZM92.8406 82.0167C91.135 82.0167 89.5332 82.4362 88.0699 83.2788L89.8805 86.4235C90.7793 85.906 91.7544 85.6455 92.8406 85.6455V82.0167ZM88.0698 83.2788C86.5763 84.1387 85.3904 85.39 84.4982 86.962L87.654 88.7532C88.265 87.6767 89.0118 86.9236 89.8805 86.4235L88.0698 83.2788ZM84.49 86.9764C83.5955 88.5865 83.188 90.4424 83.188 92.4746H86.8167C86.8167 90.9278 87.125 89.7056 87.6621 88.7387L84.49 86.9764ZM83.188 92.4746C83.188 94.5101 83.5966 96.3836 84.4705 98.0441L87.6817 96.354C87.1239 95.2943 86.8167 94.0182 86.8167 92.4746H83.188ZM84.4982 98.0946C85.3867 99.6601 86.5621 100.918 88.0348 101.811L89.9156 98.7075C89.026 98.1684 88.2687 97.3864 87.654 96.3034L84.4982 98.0946ZM88.0552 101.823C89.5399 102.696 91.1444 103.147 92.8406 103.147V99.5185C91.8166 99.5185 90.8442 99.2536 89.8951 98.6953L88.0552 101.823ZM92.8406 103.147C94.5459 103.147 96.157 102.728 97.6448 101.897L95.8746 98.729C94.9286 99.2576 93.927 99.5185 92.8406 99.5185V103.147ZM97.6796 101.877C99.188 100.989 100.379 99.7459 101.245 98.1875L98.0727 96.4253C97.5068 97.4438 96.7652 98.2046 95.8398 98.749L97.6796 101.877ZM101.255 98.1692C102.141 96.5291 102.547 94.645 102.547 92.582H98.9181C98.9181 94.1696 98.6078 95.4351 98.0626 96.4436L101.255 98.1692ZM123.159 82.3279H121.345V88.7537L124.706 83.2768L123.159 82.3279ZM126.917 78.6235L126.021 77.046L126.013 77.0504L126.005 77.055L126.917 78.6235ZM132.286 77.2814H134.1V75.467H132.286V77.2814ZM132.286 85.1733V86.9876H134.1V85.1733H132.286ZM124.931 86.8375L123.708 85.4968L123.698 85.5059L123.689 85.5151L124.931 86.8375ZM123.159 107.453V109.268H124.974V107.453H123.159ZM115.643 107.453H113.829V109.268H115.643V107.453ZM115.643 77.7109V75.8965H113.829V77.7109H115.643ZM123.159 77.7109H124.974V75.8965H123.159V77.7109ZM124.706 83.2768C125.521 81.9478 126.56 80.9301 127.829 80.1921L126.005 77.055C124.197 78.1064 122.73 79.5584 121.613 81.3789L124.706 83.2768ZM127.814 80.201C129.087 79.4776 130.561 79.0957 132.286 79.0957V75.467C130.002 75.467 127.897 75.9799 126.021 77.046L127.814 80.201ZM130.471 77.2814V85.1733H134.1V77.2814H130.471ZM132.286 83.3589H130.299V86.9876H132.286V83.3589ZM130.299 83.3589C127.68 83.3589 125.38 83.9727 123.708 85.4968L126.153 88.1783C126.915 87.4833 128.195 86.9876 130.299 86.9876V83.3589ZM123.689 85.5151C121.956 87.1429 121.345 89.7109 121.345 92.6357H124.974C124.974 90.0486 125.544 88.7513 126.173 88.1599L123.689 85.5151ZM121.345 92.6357V107.453H124.974V92.6357H121.345ZM123.159 105.639H115.643V109.268H123.159V105.639ZM117.457 107.453V77.7109H113.829V107.453H117.457ZM115.643 79.5252H123.159V75.8965H115.643V79.5252ZM121.345 77.7109V82.3279H124.974V77.7109H121.345ZM164.782 94.8368V96.6512H166.319L166.572 95.1351L164.782 94.8368ZM143.039 94.8368V93.0224H141.067L141.231 94.9875L143.039 94.8368ZM145.294 99.8833L144.066 101.219L144.066 101.219L145.294 99.8833ZM156.139 98.1117V96.2973H155.01L154.511 97.31L156.139 98.1117ZM164.245 98.1117L165.983 98.633L166.684 96.2973H164.245V98.1117ZM159.306 105.198L160.395 106.65L160.401 106.645L160.408 106.64L159.306 105.198ZM142.61 106.057L141.709 107.633L141.724 107.641L141.739 107.649L142.61 106.057ZM137.295 100.635L135.697 101.495L135.702 101.505L135.707 101.514L137.295 100.635ZM137.295 84.4753L135.697 83.6151L135.697 83.6151L137.295 84.4753ZM142.556 79.1067L143.437 80.6928L143.437 80.6928L142.556 79.1067ZM157.91 79.053L157.038 80.6439L157.048 80.6497L157.91 79.053ZM163.118 84.2606L161.521 85.1223L161.529 85.1375L161.538 85.1525L163.118 84.2606ZM157.212 89.7903V91.6047H159.061L159.026 89.7567L157.212 89.7903ZM155.119 85.1733L153.929 86.5432L153.939 86.5522L153.95 86.5611L155.119 85.1733ZM145.401 85.1196L146.604 86.4778L146.607 86.4757L145.401 85.1196ZM143.093 89.7903L141.297 89.5337L141.001 91.6047H143.093V89.7903ZM163.182 91.9378C163.182 92.9336 163.116 93.7977 162.992 94.5385L166.572 95.1351C166.735 94.1579 166.811 93.0894 166.811 91.9378H163.182ZM164.782 93.0224H143.039V96.6512H164.782V93.0224ZM141.231 94.9875C141.44 97.4938 142.342 99.6352 144.066 101.219L146.522 98.5474C145.597 97.6977 144.996 96.4748 144.847 94.6861L141.231 94.9875ZM144.066 101.219C145.752 102.768 147.829 103.523 150.179 103.523V99.8943C148.664 99.8943 147.485 99.4324 146.522 98.5474L144.066 101.219ZM150.179 103.523C151.838 103.523 153.372 103.165 154.701 102.363C156.034 101.558 157.046 100.375 157.766 98.9134L154.511 97.31C154.05 98.2461 153.478 98.862 152.825 99.2561C152.168 99.653 151.312 99.8943 150.179 99.8943V103.523ZM156.139 99.9261H164.245V96.2973H156.139V99.9261ZM162.507 97.5903C161.761 100.078 160.342 102.122 158.204 103.757L160.408 106.64C163.137 104.553 165.011 101.872 165.983 98.633L162.507 97.5903ZM158.217 103.747C156.147 105.299 153.558 106.122 150.34 106.122V109.751C154.209 109.751 157.597 108.748 160.395 106.65L158.217 103.747ZM150.34 106.122C147.751 106.122 145.479 105.558 143.48 104.465L141.739 107.649C144.322 109.062 147.203 109.751 150.34 109.751V106.122ZM143.51 104.482C141.551 103.362 140.013 101.799 138.882 99.7559L135.707 101.514C137.153 104.124 139.159 106.175 141.709 107.633L143.51 104.482ZM138.892 99.7748C137.802 97.7503 137.23 95.3698 137.23 92.582H133.601C133.601 95.8787 134.282 98.8668 135.697 101.495L138.892 99.7748ZM137.23 92.582C137.23 89.7545 137.804 87.357 138.892 85.3355L135.697 83.6151C134.28 86.2465 133.601 89.2534 133.601 92.582H137.23ZM138.892 85.3355C139.985 83.3067 141.493 81.7727 143.437 80.6928L141.675 77.5206C139.109 78.9461 137.11 80.9911 135.697 83.6151L138.892 85.3355ZM143.437 80.6928C145.387 79.6094 147.671 79.0421 150.34 79.0421V75.4133C147.14 75.4133 144.234 76.0986 141.675 77.5206L143.437 80.6928ZM150.34 79.0421C152.899 79.0421 155.116 79.5902 157.038 80.6439L158.783 77.4621C156.266 76.0821 153.436 75.4133 150.34 75.4133V79.0421ZM157.048 80.6497C158.992 81.6985 160.472 83.1789 161.521 85.1223L164.714 83.3989C163.33 80.8326 161.338 78.8413 158.772 77.4563L157.048 80.6497ZM161.538 85.1525C162.617 87.0637 163.182 89.3075 163.182 91.9378H166.811C166.811 88.7698 166.124 85.8955 164.698 83.3687L161.538 85.1525ZM159.026 89.7567C158.982 87.352 158.085 85.2997 156.287 83.7854L153.95 86.5611C154.872 87.3375 155.371 88.3631 155.398 89.8239L159.026 89.7567ZM156.308 83.8033C154.586 82.3082 152.488 81.5872 150.126 81.5872V85.216C151.701 85.216 152.93 85.6761 153.929 86.5432L156.308 83.8033ZM150.126 81.5872C147.859 81.5872 145.844 82.2984 144.196 83.7635L146.607 86.4757C147.535 85.6501 148.671 85.216 150.126 85.216V81.5872ZM144.198 83.7614C142.559 85.2129 141.63 87.1967 141.297 89.5337L144.889 90.0469C145.128 88.3753 145.738 87.2453 146.604 86.4778L144.198 83.7614ZM143.093 91.6047H157.212V87.9759H143.093V91.6047ZM195.554 80.6636L194.251 81.9257L194.256 81.9309L194.261 81.9361L195.554 80.6636ZM198.829 107.453V109.268H200.644V107.453H198.829ZM191.313 107.453H189.499V109.268H191.313V107.453ZM189.542 85.6028L188.204 86.8288L188.213 86.8382L188.221 86.8474L189.542 85.6028ZM179.771 85.6028L178.452 84.357L178.451 84.3581L179.771 85.6028ZM177.999 107.453V109.268H179.813V107.453H177.999ZM170.483 107.453H168.669V109.268H170.483V107.453ZM170.483 77.7109V75.8965H168.669V77.7109H170.483ZM177.999 77.7109H179.813V75.8965H177.999V77.7109ZM177.999 81.4152H176.185V86.7033L179.431 82.5291L177.999 81.4152ZM181.811 78.4088L182.576 80.0539L182.584 80.0501L182.592 80.0462L181.811 78.4088ZM186.965 79.0957C190.086 79.0957 192.455 80.0708 194.251 81.9257L196.858 79.4015C194.287 76.7467 190.93 75.467 186.965 75.467V79.0957ZM194.261 81.9361C196.022 83.726 197.015 86.3297 197.015 90.005H200.644C200.644 85.6632 199.453 82.0393 196.848 79.3911L194.261 81.9361ZM197.015 90.005V107.453H200.644V90.005H197.015ZM198.829 105.639H191.313V109.268H198.829V105.639ZM193.128 107.453V91.0251H189.499V107.453H193.128ZM193.128 91.0251C193.128 88.3746 192.463 86.0559 190.862 84.3581L188.221 86.8474C188.983 87.6549 189.499 88.9512 189.499 91.0251H193.128ZM190.879 84.3767C189.296 82.6498 187.165 81.8557 184.71 81.8557V85.4844C186.334 85.4844 187.425 85.9787 188.204 86.8288L190.879 84.3767ZM184.71 81.8557C182.228 81.8557 180.07 82.643 178.452 84.357L181.09 86.8486C181.905 85.9855 183.04 85.4844 184.71 85.4844V81.8557ZM178.451 84.3581C176.85 86.0559 176.185 88.3746 176.185 91.0251H179.813C179.813 88.9512 180.329 87.6549 181.091 86.8474L178.451 84.3581ZM176.185 91.0251V107.453H179.813V91.0251H176.185ZM177.999 105.639H170.483V109.268H177.999V105.639ZM172.297 107.453V77.7109H168.669V107.453H172.297ZM170.483 79.5252H177.999V75.8965H170.483V79.5252ZM176.185 77.7109V81.4152H179.813V77.7109H176.185ZM179.431 82.5291C180.249 81.4774 181.288 80.6532 182.576 80.0539L181.046 76.7636C179.256 77.596 177.753 78.7761 176.567 80.3013L179.431 82.5291ZM182.592 80.0462C183.907 79.4188 185.356 79.0957 186.965 79.0957V75.467C184.851 75.467 182.864 75.8956 181.029 76.7713L182.592 80.0462ZM214.728 83.8848V82.0704H212.913V83.8848H214.728ZM215.426 100.474L214.143 101.757L214.192 101.806L214.245 101.851L215.426 100.474ZM221.385 101.118H223.199V99.3037H221.385V101.118ZM221.385 107.453V109.268H223.199V107.453H221.385ZM207.158 83.8848H208.972V82.0704H207.158V83.8848ZM203.615 83.8848H201.8V85.6992H203.615V83.8848ZM203.615 77.7109V75.8965H201.8V77.7109H203.615ZM207.158 77.7109V79.5252H208.972V77.7109H207.158ZM207.158 70.3558V68.5414H205.343V70.3558H207.158ZM214.728 70.3558H216.542V68.5414H214.728V70.3558ZM214.728 77.7109H212.913V79.5252H214.728V77.7109ZM221.385 77.7109H223.199V75.8965H221.385V77.7109ZM221.385 83.8848V85.6992H223.199V83.8848H221.385ZM212.913 83.8848V98.2727H216.542V83.8848H212.913ZM212.913 98.2727C212.913 99.5089 213.195 100.809 214.143 101.757L216.709 99.1909C216.708 99.1905 216.706 99.1887 216.703 99.1847C216.7 99.1806 216.695 99.1733 216.688 99.1618C216.675 99.1389 216.654 99.0963 216.632 99.0263C216.586 98.881 216.542 98.6407 216.542 98.2727H212.913ZM214.245 101.851C215.243 102.707 216.606 102.933 217.895 102.933V99.3037C217.427 99.3037 217.097 99.259 216.877 99.2014C216.657 99.1442 216.596 99.0877 216.606 99.0963L214.245 101.851ZM217.895 102.933H221.385V99.3037H217.895V102.933ZM219.57 101.118V107.453H223.199V101.118H219.57ZM221.385 105.639H216.66V109.268H221.385V105.639ZM216.66 105.639C213.76 105.639 211.92 104.934 210.798 103.843C209.686 102.763 208.972 101.004 208.972 98.2191H205.343C205.343 101.59 206.214 104.449 208.269 106.446C210.315 108.434 213.226 109.268 216.66 109.268V105.639ZM208.972 98.2191V83.8848H205.343V98.2191H208.972ZM207.158 82.0704H203.615V85.6992H207.158V82.0704ZM205.429 83.8848V77.7109H201.8V83.8848H205.429ZM203.615 79.5252H207.158V75.8965H203.615V79.5252ZM208.972 77.7109V70.3558H205.343V77.7109H208.972ZM207.158 72.1702H214.728V68.5414H207.158V72.1702ZM212.913 70.3558V77.7109H216.542V70.3558H212.913ZM214.728 79.5252H221.385V75.8965H214.728V79.5252ZM219.57 77.7109V83.8848H223.199V77.7109H219.57ZM221.385 82.0704H214.728V85.6992H221.385V82.0704ZM227.274 72.9328L225.991 74.2157L226.018 74.2424L226.045 74.268L227.274 72.9328ZM227.274 66.6514L228.529 67.9614L228.53 67.9603L227.274 66.6514ZM233.877 66.6514L232.594 67.9344L232.621 67.9611L232.649 67.9867L233.877 66.6514ZM233.877 72.9328L235.133 74.2427L235.134 74.2416L233.877 72.9328ZM234.307 77.7109H236.121V75.8965H234.307V77.7109ZM234.307 107.453V109.268H236.121V107.453H234.307ZM226.791 107.453H224.976V109.268H226.791V107.453ZM226.791 77.7109V75.8965H224.976V77.7109H226.791ZM230.602 72.3532C229.689 72.3532 229.031 72.0839 228.502 71.5975L226.045 74.268C227.306 75.428 228.867 75.9819 230.602 75.9819V72.3532ZM228.557 71.6498C228.05 71.1428 227.8 70.5535 227.8 69.7653H224.171C224.171 71.4824 224.78 73.0048 225.991 74.2157L228.557 71.6498ZM227.8 69.7653C227.8 68.9779 228.048 68.4226 228.529 67.9614L226.018 65.3415C224.782 66.5266 224.171 68.0473 224.171 69.7653H227.8ZM228.53 67.9603C229.063 67.4491 229.712 67.1774 230.602 67.1774V63.5486C228.845 63.5486 227.274 64.1358 226.017 65.3426L228.53 67.9603ZM230.602 67.1774C231.493 67.1774 232.108 67.448 232.594 67.9344L235.16 65.3685C233.929 64.1369 232.36 63.5486 230.602 63.5486V67.1774ZM232.649 67.9867C233.158 68.4547 233.405 69.0026 233.405 69.7653H237.034C237.034 68.0226 236.387 66.4946 235.106 65.3162L232.649 67.9867ZM233.405 69.7653C233.405 70.5295 233.155 71.1109 232.621 71.6239L235.134 74.2416C236.389 73.0367 237.034 71.5064 237.034 69.7653H233.405ZM232.622 71.6228C232.14 72.0846 231.516 72.3532 230.602 72.3532V75.9819C232.337 75.9819 233.897 75.4274 235.133 74.2427L232.622 71.6228ZM232.492 77.7109V107.453H236.121V77.7109H232.492ZM234.307 105.639H226.791V109.268H234.307V105.639ZM228.605 107.453V77.7109H224.976V107.453H228.605ZM226.791 79.5252H234.307V75.8965H226.791V79.5252ZM266.804 80.6636L265.501 81.9257L265.506 81.9309L265.511 81.9361L266.804 80.6636ZM270.079 107.453V109.268H271.894V107.453H270.079ZM262.563 107.453H260.749V109.268H262.563V107.453ZM260.791 85.6028L259.454 86.8288L259.463 86.8382L259.471 86.8474L260.791 85.6028ZM251.02 85.6028L249.701 84.357L249.7 84.3581L251.02 85.6028ZM249.249 107.453V109.268H251.063V107.453H249.249ZM241.733 107.453H239.918V109.268H241.733V107.453ZM241.733 77.7109V75.8965H239.918V77.7109H241.733ZM249.249 77.7109H251.063V75.8965H249.249V77.7109ZM249.249 81.4152H247.434V86.7033L250.681 82.5291L249.249 81.4152ZM253.061 78.4088L253.826 80.0539L253.834 80.0501L253.842 80.0462L253.061 78.4088ZM258.214 79.0957C261.336 79.0957 263.705 80.0708 265.501 81.9257L268.108 79.4015C265.537 76.7467 262.18 75.467 258.214 75.467V79.0957ZM265.511 81.9361C267.272 83.726 268.265 86.3297 268.265 90.005H271.894C271.894 85.6632 270.703 82.0393 268.098 79.3911L265.511 81.9361ZM268.265 90.005V107.453H271.894V90.005H268.265ZM270.079 105.639H262.563V109.268H270.079V105.639ZM264.377 107.453V91.0251H260.749V107.453H264.377ZM264.377 91.0251C264.377 88.3746 263.712 86.0559 262.112 84.3581L259.471 86.8474C260.233 87.6549 260.749 88.9512 260.749 91.0251H264.377ZM262.129 84.3767C260.546 82.6498 258.415 81.8557 255.96 81.8557V85.4844C257.584 85.4844 258.675 85.9787 259.454 86.8288L262.129 84.3767ZM255.96 81.8557C253.478 81.8557 251.32 82.643 249.701 84.357L252.34 86.8486C253.155 85.9855 254.29 85.4844 255.96 85.4844V81.8557ZM249.7 84.3581C248.1 86.0559 247.434 88.3746 247.434 91.0251H251.063C251.063 88.9512 251.579 87.6549 252.341 86.8474L249.7 84.3581ZM247.434 91.0251V107.453H251.063V91.0251H247.434ZM249.249 105.639H241.733V109.268H249.249V105.639ZM243.547 107.453V77.7109H239.918V107.453H243.547ZM241.733 79.5252H249.249V75.8965H241.733V79.5252ZM247.434 77.7109V81.4152H251.063V77.7109H247.434ZM250.681 82.5291C251.499 81.4774 252.537 80.6532 253.826 80.0539L252.295 76.7636C250.506 77.596 249.003 78.7761 247.817 80.3013L250.681 82.5291ZM253.842 80.0462C255.157 79.4188 256.605 79.0957 258.214 79.0957V75.467C256.101 75.467 254.114 75.8956 252.279 76.7713L253.842 80.0462ZM294.728 78.5698L293.876 80.1717L293.89 80.1788L293.903 80.1857L294.728 78.5698ZM298.701 81.9521L297.209 82.9848L300.516 87.7604V81.9521H298.701ZM298.701 77.7109V75.8965H296.887V77.7109H298.701ZM306.271 77.7109H308.085V75.8965H306.271V77.7109ZM304.607 115.023L302.995 114.19L302.989 114.201L304.607 115.023ZM299.614 120.177L298.722 118.597L298.712 118.602L298.703 118.608L299.614 120.177ZM281.146 119.157L280.073 120.62L280.082 120.627L281.146 119.157ZM276.582 111.104V109.289H274.567L274.778 111.294L276.582 111.104ZM284.045 111.104L285.788 110.599L285.408 109.289H284.045V111.104ZM286.568 114.325L287.526 112.784L287.514 112.777L286.568 114.325ZM296.661 113.573L295.413 112.256L295.404 112.265L295.395 112.273L296.661 113.573ZM298.701 103.051H300.516V97.2425L297.209 102.018L298.701 103.051ZM294.675 106.54L293.811 104.945L293.803 104.949L293.796 104.953L294.675 106.54ZM282.005 106.004L282.962 104.462L282.962 104.462L282.005 106.004ZM277.066 100.581L275.443 101.393L275.45 101.408L275.458 101.422L277.066 100.581ZM277.066 84.4753L275.458 83.6344L275.453 83.6442L275.448 83.654L277.066 84.4753ZM281.951 79.1067L281.014 77.5532L281.002 77.5605L281.951 79.1067ZM297.627 87.9113L296.031 88.774L296.036 88.7833L296.041 88.7924L297.627 87.9113ZM294.728 84.9048L293.808 86.4687L293.826 86.4789L293.843 86.4887L294.728 84.9048ZM286.944 84.8511L286.039 83.2788L286.039 83.2788L286.944 84.8511ZM284.045 87.8576L282.467 86.962L282.463 86.9692L282.459 86.9764L284.045 87.8576ZM284.045 97.199L282.439 98.0441L282.453 98.0696L282.467 98.0946L284.045 97.199ZM286.944 100.259L286.003 101.811L286.014 101.817L286.024 101.823L286.944 100.259ZM294.728 100.313L295.613 101.897L295.631 101.887L295.648 101.877L294.728 100.313ZM297.627 97.3064L299.213 98.1875L299.219 98.1784L299.224 98.1692L297.627 97.3064ZM288.877 79.0421C290.848 79.0421 292.497 79.4378 293.876 80.1717L295.58 76.968C293.596 75.9123 291.344 75.4133 288.877 75.4133V79.0421ZM293.903 80.1857C295.349 80.924 296.432 81.8622 297.209 82.9848L300.193 80.9193C299.037 79.2502 297.472 77.9336 295.553 76.9539L293.903 80.1857ZM300.516 81.9521V77.7109H296.887V81.9521H300.516ZM298.701 79.5252H306.271V75.8965H298.701V79.5252ZM304.457 77.7109V107.668H308.085V77.7109H304.457ZM304.457 107.668C304.457 110.175 303.954 112.334 302.995 114.19L306.219 115.856C307.479 113.417 308.085 110.673 308.085 107.668H304.457ZM302.989 114.201C302.048 116.052 300.643 117.512 298.722 118.597L300.506 121.757C303.023 120.336 304.946 118.36 306.224 115.845L302.989 114.201ZM298.703 118.608C296.817 119.703 294.463 120.295 291.561 120.295V123.924C294.958 123.924 297.973 123.228 300.525 121.746L298.703 118.608ZM291.561 120.295C287.62 120.295 284.548 119.379 282.209 117.687L280.082 120.627C283.183 122.871 287.055 123.924 291.561 123.924V120.295ZM282.219 117.694C279.959 116.037 278.693 113.821 278.387 110.914L274.778 111.294C275.188 115.187 276.964 118.34 280.073 120.62L282.219 117.694ZM276.582 112.918H284.045V109.289H276.582V112.918ZM282.302 111.608C282.83 113.434 283.975 114.867 285.622 115.873L287.514 112.777C286.584 112.208 286.046 111.494 285.788 110.599L282.302 111.608ZM285.61 115.866C287.273 116.9 289.213 117.374 291.346 117.374V113.745C289.757 113.745 288.511 113.397 287.526 112.784L285.61 115.866ZM291.346 117.374C293.926 117.374 296.177 116.577 297.927 114.873L295.395 112.273C294.425 113.218 293.133 113.745 291.346 113.745V117.374ZM297.909 114.891C299.759 113.138 300.516 110.604 300.516 107.668H296.887C296.887 110.028 296.283 111.432 295.413 112.256L297.909 114.891ZM300.516 107.668V103.051H296.887V107.668H300.516ZM297.209 102.018C296.428 103.147 295.316 104.13 293.811 104.945L295.539 108.136C297.469 107.09 299.042 105.747 300.193 104.084L297.209 102.018ZM293.796 104.953C292.418 105.715 290.795 106.122 288.877 106.122V109.751C291.325 109.751 293.567 109.227 295.553 108.128L293.796 104.953ZM288.877 106.122C286.7 106.122 284.742 105.567 282.962 104.462L281.048 107.545C283.419 109.017 286.042 109.751 288.877 109.751V106.122ZM282.962 104.462C281.182 103.357 279.751 101.801 278.673 99.7403L275.458 101.422C276.813 104.014 278.676 106.073 281.048 107.545L282.962 104.462ZM278.688 99.7698C277.651 97.6953 277.108 95.2781 277.108 92.4746H273.479C273.479 95.7556 274.118 98.7428 275.443 101.393L278.688 99.7698ZM277.108 92.4746C277.108 89.71 277.65 87.3324 278.683 85.2967L275.448 83.654C274.119 86.2711 273.479 89.2264 273.479 92.4746H277.108ZM278.673 85.3163C279.753 83.2511 281.166 81.7179 282.9 80.6529L281.002 77.5605C278.656 79.0009 276.811 81.0467 275.458 83.6344L278.673 85.3163ZM282.888 80.6601C284.668 79.5866 286.649 79.0421 288.877 79.0421V75.4133C286.022 75.4133 283.386 76.1215 281.014 77.5533L282.888 80.6601ZM300.516 92.582C300.516 90.5209 300.111 88.6452 299.213 87.0301L296.041 88.7924C296.576 89.7543 296.887 90.9924 296.887 92.582H300.516ZM299.224 87.0485C298.358 85.4465 297.155 84.1825 295.613 83.321L293.843 86.4887C294.735 86.9873 295.466 87.7275 296.031 88.774L299.224 87.0485ZM295.648 83.341C294.156 82.4631 292.532 82.0167 290.809 82.0167V85.6455C291.878 85.6455 292.867 85.9149 293.808 86.4687L295.648 83.341ZM290.809 82.0167C289.104 82.0167 287.502 82.4362 286.039 83.2788L287.849 86.4235C288.748 85.906 289.723 85.6455 290.809 85.6455V82.0167ZM286.039 83.2788C284.545 84.1387 283.359 85.39 282.467 86.962L285.623 88.7532C286.234 87.6767 286.98 86.9236 287.849 86.4235L286.039 83.2788ZM282.459 86.9764C281.564 88.5865 281.157 90.4424 281.157 92.4746H284.785C284.785 90.9278 285.094 89.7056 285.631 88.7387L282.459 86.9764ZM281.157 92.4746C281.157 94.5101 281.565 96.3836 282.439 98.0441L285.65 96.354C285.093 95.2943 284.785 94.0182 284.785 92.4746H281.157ZM282.467 98.0946C283.355 99.6601 284.531 100.918 286.003 101.811L287.884 98.7075C286.995 98.1684 286.237 97.3864 285.623 96.3034L282.467 98.0946ZM286.024 101.823C287.509 102.696 289.113 103.147 290.809 103.147V99.5185C289.785 99.5185 288.813 99.2536 287.864 98.6953L286.024 101.823ZM290.809 103.147C292.515 103.147 294.126 102.728 295.613 101.897L293.843 98.729C292.897 99.2576 291.896 99.5185 290.809 99.5185V103.147ZM295.648 101.877C297.157 100.989 298.348 99.7459 299.213 98.1875L296.041 96.4253C295.476 97.4438 294.734 98.2046 293.808 98.749L295.648 101.877ZM299.224 98.1692C300.11 96.5291 300.516 94.645 300.516 92.582H296.887C296.887 94.1696 296.576 95.4351 296.031 96.4436L299.224 98.1692Z" fill="white" mask="url(#path-8-outside-2_4_30)"/>
</g>
<defs>
<filter id="filter0_d_4_30" x="0.075618" y="0.290894" width="309.824" height="129.251" filterUnits="userSpaceOnUse" color-interpolation-filters="sRGB">
<feFlood flood-opacity="0" result="BackgroundImageFix"/>
<feColorMatrix in="SourceAlpha" type="matrix" values="0 0 0 0 0 0 0 0 0 0 0 0 0 0 0 0 0 0 127 0" result="hardAlpha"/>
<feOffset dy="3.62876"/>
<feGaussianBlur stdDeviation="1.81438"/>
<feComposite in2="hardAlpha" operator="out"/>
<feColorMatrix type="matrix" values="0 0 0 0 0 0 0 0 0 0 0 0 0 0 0 0 0 0 0.25 0"/>
<feBlend mode="normal" in2="BackgroundImageFix" result="effect1_dropShadow_4_30"/>
<feBlend mode="normal" in="SourceGraphic" in2="effect1_dropShadow_4_30" result="shape"/>
</filter>
</defs>
</svg>
